<svg width="21" height="20" viewBox="0 0 21 20" fill="none" xmlns="http://www.w3.org/2000/svg">
<g id="li:megaphone">
<path id="Vector (Stroke)" fill-rule="evenodd" clip-rule="evenodd" d="M18.028 4.33653C18.2354 4.49411 18.3571 4.73955 18.3571 4.99997V15C18.3571 15.2527 18.2424 15.4918 18.0452 15.65C17.848 15.8082 17.5897 15.8683 17.343 15.8135L2.34299 12.4801C1.96171 12.3954 1.69043 12.0572 1.69043 11.6666V9.16663C1.69043 8.79229 1.94004 8.46389 2.30073 8.3637L17.3007 4.19704C17.5516 4.12734 17.8207 4.17894 18.028 4.33653ZM3.3571 9.80004V10.9982L16.6904 13.9611V6.09633L3.3571 9.80004Z" fill="#0C2519"/>
<path id="Vector (Stroke)_2" fill-rule="evenodd" clip-rule="evenodd" d="M5.0788 11.8633C5.52247 11.9857 5.78291 12.4446 5.66052 12.8883C5.60208 13.1001 5.58593 13.3215 5.61301 13.5396C5.64009 13.7577 5.70987 13.9683 5.81835 14.1594C5.92684 14.3506 6.07191 14.5185 6.24528 14.6536C6.41865 14.7886 6.61694 14.8882 6.8288 14.9467C7.04067 15.0051 7.26197 15.0213 7.48008 14.9942C7.69818 14.9671 7.90882 14.8973 8.09996 14.7888C8.2911 14.6804 8.459 14.5353 8.59408 14.3619C8.72915 14.1885 8.82876 13.9903 8.8872 13.7784C9.00959 13.3347 9.46847 13.0743 9.91214 13.1967C10.3558 13.3191 10.6162 13.7779 10.4939 14.2216C10.3772 14.6445 10.1784 15.0402 9.90882 15.3862C9.63923 15.7323 9.30412 16.0218 8.92264 16.2383C8.54115 16.4548 8.12075 16.5941 7.68544 16.6482C7.25013 16.7022 6.80844 16.67 6.38559 16.5533C5.96273 16.4367 5.56699 16.2379 5.22097 15.9683C4.87494 15.6987 4.5854 15.3636 4.36888 14.9821C4.15236 14.6006 4.0131 14.1802 3.95905 13.7449C3.905 13.3096 3.93722 12.8679 4.05387 12.4451C4.17626 12.0014 4.63514 11.741 5.0788 11.8633Z" fill="#0C2519"/>
</g>
</svg>
