<svg width="52" height="52" viewBox="0 0 52 52" fill="none" xmlns="http://www.w3.org/2000/svg">
<g id="svgexport-6 (2) 1" clip-path="url(#clip0_22_308)">
<g id="Group">
<g id="Group_2">
<path id="Vector" d="M51.1689 20.0524L50.068 9.04158C50.0329 8.69169 49.878 8.36456 49.6293 8.11594L43.8841 2.37075C43.6355 2.12202 43.3085 1.96704 42.9585 1.9321L31.9476 0.831061C29.3609 0.571975 26.8228 1.47832 24.9843 3.3167L2.23102 26.0698C0.792289 27.5085 0 29.4214 0 31.456C0 33.4906 0.792289 35.4035 2.23102 36.8422L15.1578 49.7689C16.5965 51.2077 18.5094 52 20.544 52C22.5786 52 24.4915 51.2077 25.9301 49.7689L48.6834 27.0158C50.5218 25.1773 51.4277 22.6393 51.1689 20.0524ZM41.3705 16.3747C39.784 17.9612 37.2117 17.9612 35.6252 16.3747C34.0387 14.7882 34.0387 12.2159 35.6252 10.6294C37.2117 9.0429 39.784 9.0429 41.3705 10.6294C42.957 12.2159 42.957 14.7882 41.3705 16.3747Z" fill="#0291A0"/>
<path id="Vector_2" d="M31.5471 22.4375L32.3086 21.676C32.9036 21.081 32.9036 20.1165 32.3086 19.5215C31.7137 18.9266 30.7491 18.9266 30.1542 19.5215L29.2676 20.4081C29.1286 20.3239 28.9862 20.2409 28.8368 20.1607C27.0098 19.1796 24.7608 19.3308 22.9674 20.5553C21.3273 21.6753 20.4391 23.4532 20.6496 25.1955C20.7555 26.0713 21.0071 27.0283 21.4575 28.2182L15.9864 33.6893C15.3851 32.9555 15.1159 32.3104 14.856 31.067C14.6839 30.2435 13.8765 29.7158 13.0531 29.8876C12.2295 30.0597 11.7014 30.867 11.8736 31.6905C12.2864 33.6649 12.862 34.7443 13.825 35.8507L12.9184 36.7573C12.3235 37.3522 12.3235 38.3168 12.9184 38.9117C13.5134 39.5067 14.4779 39.5067 15.0729 38.9117L16.0752 37.9094C17.0583 38.5324 18.1669 38.8826 19.3446 38.9324C19.4396 38.9364 19.5347 38.9383 19.6297 38.9383C21.0504 38.9383 22.4564 38.4907 23.6177 37.6637C24.7669 36.8452 25.6061 35.6889 25.9806 34.4075C26.3987 32.9768 26.2454 31.4369 25.5372 29.9546C25.377 29.6192 25.2153 29.2748 25.0573 28.9271L29.3475 24.6369C29.7554 25.351 29.7585 25.9195 29.758 25.9597C29.7052 26.7955 30.3375 27.518 31.1741 27.5755C32.0134 27.633 32.7407 26.9994 32.7983 26.16C32.8586 25.2844 32.59 23.8363 31.5471 22.4375ZM22.788 31.268C23.8617 33.5154 22.3417 34.832 21.8503 35.1819C20.9393 35.8308 19.5964 36.139 18.334 35.6506L22.765 31.2196C22.7728 31.2358 22.7802 31.2517 22.788 31.268ZM23.6746 24.8299C23.6022 24.2306 23.9991 23.5403 24.6856 23.0715C25.263 22.6773 26.1371 22.4015 26.9985 22.6773L23.8713 25.8045C23.7801 25.4618 23.7114 25.1341 23.6746 24.8299ZM38.857 13.1431C38.262 12.5481 38.262 11.5836 38.857 10.9886L49.3993 0.446154C49.9943 -0.148799 50.9588 -0.148799 51.5538 0.446154C52.1487 1.04111 52.1487 2.00565 51.5538 2.6006L41.0115 13.1431C40.4166 13.7379 39.4519 13.7379 38.857 13.1431Z" fill="url(#paint0_linear_22_308)"/>
</g>
</g>
</g>
<defs>
<linearGradient id="paint0_linear_22_308" x1="13.0029" y1="38.9961" x2="51.5534" y2="0.445652" gradientUnits="userSpaceOnUse">
<stop stop-color="#C3FFE8"/>
<stop offset="0.9973" stop-color="white"/>
</linearGradient>
<clipPath id="clip0_22_308">
<rect width="52" height="52" fill="white"/>
</clipPath>
</defs>
</svg>
