<svg width="20" height="20" viewBox="0 0 20 20" fill="none" xmlns="http://www.w3.org/2000/svg">
<g id="Iconly/Light-Outline/Call">
<path id="Stroke 5" fill-rule="evenodd" clip-rule="evenodd" d="M2.74056 3.4065L2.80101 3.34332C4.4072 1.73699 5.45316 1.31122 6.56918 1.95298C6.89021 2.13758 7.19117 2.39599 7.60041 2.81163L8.85572 4.11332C9.54908 4.8699 9.7067 5.59561 9.48093 6.4455L9.44982 6.55802L9.4153 6.66989L9.24749 7.16225C8.88831 8.26639 9.03827 8.88936 10.3162 10.1669C11.6451 11.4955 12.2654 11.6042 13.4547 11.1886L13.6667 11.1149L13.923 11.0317L14.0352 11.0006C14.9386 10.7595 15.7016 10.9519 16.511 11.7606L17.5224 12.7376L17.8201 13.0304C18.1502 13.3671 18.3684 13.6338 18.5295 13.9157C19.1673 15.0314 18.7411 16.0767 17.0886 17.7231L16.9314 17.8824C16.6846 18.1201 16.4541 18.2905 16.1155 18.4513C15.547 18.7212 14.8755 18.8229 14.0951 18.7144C12.1722 18.447 9.73343 16.9298 6.64319 13.8403C6.39164 13.5889 6.15071 13.3422 5.92017 13.1004L5.47286 12.623C1.28131 8.069 0.911533 5.27153 2.62927 3.51705L2.74056 3.4065ZM6.58864 3.5674C6.31714 3.29974 6.11993 3.13657 5.94606 3.03659C5.56145 2.81543 5.14621 2.90891 4.3777 3.57036L4.13623 3.78608C4.09411 3.82496 4.05103 3.86532 4.00694 3.9072L3.73005 4.17689L3.7051 4.20806L3.51738 4.39665C3.06376 4.85999 2.84888 5.42549 3.03405 6.39802C3.33789 7.99387 4.72864 10.1587 7.52696 12.9563C10.4427 15.8713 12.6643 17.2534 14.2673 17.4763C15.2018 17.6063 15.6785 17.38 16.1646 16.882L16.5353 16.5079C16.7091 16.3259 16.8577 16.1611 16.9831 16.0104L17.1542 15.7949C17.5914 15.2125 17.6313 14.8631 17.4443 14.536C17.3732 14.4116 17.2697 14.2751 17.119 14.1083L16.9147 13.8925L16.7937 13.7715L15.5177 12.5393C15.0913 12.1461 14.7999 12.0903 14.3574 12.2083L14.2297 12.245L13.7011 12.4245C12.1677 12.9197 11.0615 12.6796 9.43241 11.0509C7.7452 9.36417 7.54733 8.23777 8.11264 6.61594L8.14891 6.51172L8.24919 6.20957L8.29849 6.01698C8.38591 5.59784 8.2861 5.3056 7.83554 4.85496C7.81698 4.83641 7.79625 4.81551 7.77369 4.79263L6.58864 3.5674Z" fill="#0291A0"/>
</g>
</svg>
