<svg width="18" height="18" viewBox="0 0 18 18" fill="none" xmlns="http://www.w3.org/2000/svg">
<g id="li:clock-9" clip-path="url(#clip0_1_565)">
<path id="Vector (Stroke)" fill-rule="evenodd" clip-rule="evenodd" d="M9 2.25012C5.27208 2.25012 2.25 5.2722 2.25 9.00012C2.25 12.728 5.27208 15.7501 9 15.7501C12.7279 15.7501 15.75 12.728 15.75 9.00012C15.75 5.2722 12.7279 2.25012 9 2.25012ZM0.75 9.00012C0.75 4.44377 4.44365 0.750122 9 0.750122C13.5563 0.750122 17.25 4.44377 17.25 9.00012C17.25 13.5565 13.5563 17.2501 9 17.2501C4.44365 17.2501 0.75 13.5565 0.75 9.00012Z" fill="#0291A0"/>
<path id="Vector (Stroke)_2" fill-rule="evenodd" clip-rule="evenodd" d="M9 3.75012C9.41421 3.75012 9.75 4.08591 9.75 4.50012V9.00012C9.75 9.41434 9.41421 9.75012 9 9.75012H5.625C5.21079 9.75012 4.875 9.41434 4.875 9.00012C4.875 8.58591 5.21079 8.25012 5.625 8.25012H8.25V4.50012C8.25 4.08591 8.58579 3.75012 9 3.75012Z" fill="#0291A0"/>
</g>
<defs>
<clipPath id="clip0_1_565">
<rect width="18" height="18" fill="white"/>
</clipPath>
</defs>
</svg>
