<svg width="56" height="40" viewBox="0 0 56 40" fill="none" xmlns="http://www.w3.org/2000/svg">
<rect x="0.518532" y="1.2783" width="55.0824" height="37.5199" rx="4.39062" fill="white" stroke="#D9D9D9" stroke-width="0.798295"/>
<path d="M23.6439 38.399L55.1766 29.2186V34.4075C55.1766 36.612 53.3896 38.399 51.1851 38.399H23.6439Z" fill="#FD6020"/>
<path fill-rule="evenodd" clip-rule="evenodd" d="M49.1914 16.2237C50.9262 16.2237 51.8803 16.9957 51.8803 18.454C51.967 19.5691 51.1864 20.5127 50.1455 20.6843L52.4875 23.8581H50.6659L48.6709 20.7701H48.4975V23.8581H47.0229V16.2237H49.1914ZM48.4975 19.7407H48.9312C49.8853 19.7407 50.319 19.3118 50.319 18.5398C50.319 17.8535 49.8853 17.4246 48.9312 17.4246H48.4975V19.7407ZM41.9053 23.8581H46.0688V22.5714H43.3799V20.5127H45.9821V19.226H43.3799V17.5104H46.0688V16.2237H41.9053V23.8581V23.8581ZM37.5683 21.3705L35.5733 16.2237H34.012L37.2214 24.0297H38.002L41.2114 16.2237H39.6501L37.5683 21.3705V21.3705ZM19.9603 20.0838C19.9603 22.2283 21.6951 24.0297 23.8635 24.0297C24.5574 24.0297 25.1646 23.8581 25.7718 23.6008V21.8852C25.3381 22.3999 24.7309 22.743 24.037 22.743C22.6492 22.743 21.5216 21.7137 21.5216 20.3412V20.1696C21.4348 18.7971 22.5624 17.5962 23.9503 17.5104C24.6442 17.5104 25.3381 17.8536 25.7718 18.3682V16.6526C25.2514 16.3095 24.5574 16.2237 23.9503 16.2237C21.6951 16.0522 19.9603 17.8536 19.9603 20.0838V20.0838ZM17.2713 19.1402C16.4039 18.7971 16.1437 18.6256 16.1437 18.1967C16.2305 17.682 16.6642 17.2531 17.1846 17.3389C17.6183 17.3389 18.052 17.5962 18.399 17.9393L19.1796 16.91C18.5724 16.3953 17.7918 16.0522 17.0111 16.0522C15.7968 15.9664 14.7559 16.91 14.6692 18.1109V18.1967C14.6692 19.226 15.1029 19.8265 16.4907 20.2554C16.8376 20.3412 17.1846 20.5127 17.5316 20.6843C17.7918 20.8558 17.9653 21.1132 17.9653 21.4563C17.9653 22.0568 17.4448 22.5714 16.9244 22.5714H16.8376C16.1437 22.5714 15.5366 22.1425 15.2763 21.5421L14.3222 22.4857C14.8426 23.4292 15.8835 23.9439 16.9244 23.9439C18.3122 24.0297 19.4398 23.0003 19.5266 21.6279V21.3705C19.4398 20.3412 19.0061 19.8265 17.2713 19.1402V19.1402ZM12.2404 23.8581H13.715V16.2237H12.2404V23.8581V23.8581ZM5.38806 16.2237H7.55654H7.99024C10.072 16.3095 11.72 18.0251 11.6333 20.0838C11.6333 21.199 11.1129 22.2283 10.2455 23.0003C9.46481 23.6008 8.51068 23.9439 7.55654 23.8581H5.38806V16.2237ZM7.2964 22.5714C7.99031 22.6572 8.77097 22.3998 9.2914 21.9709C9.81184 21.4562 10.0721 20.77 10.0721 19.998C10.0721 19.3117 9.81184 18.6255 9.2914 18.1108C8.77097 17.6819 7.99031 17.4246 7.2964 17.5104H6.8627V22.5714H7.2964Z" fill="black"/>
<path fill-rule="evenodd" clip-rule="evenodd" d="M30.1956 16.0468C28.0271 16.0468 26.2056 17.7624 26.2056 19.9926C26.2056 22.1371 27.9404 23.9385 30.1956 24.0243C32.4508 24.1101 34.1856 22.3087 34.2723 20.0784C34.1856 17.8481 32.4508 16.0468 30.1956 16.0468V16.0468Z" fill="#FD6020"/>
</svg>
