<svg width="18" height="18" viewBox="0 0 18 18" fill="none" xmlns="http://www.w3.org/2000/svg">
<g id="li:mail">
<path id="Vector (Stroke)" fill-rule="evenodd" clip-rule="evenodd" d="M3 3.75012C2.58921 3.75012 2.25 4.08934 2.25 4.50012V13.5001C2.25 13.9109 2.58921 14.2501 3 14.2501H15C15.4108 14.2501 15.75 13.9109 15.75 13.5001V4.50012C15.75 4.08934 15.4108 3.75012 15 3.75012H3ZM0.75 4.50012C0.75 3.26091 1.76079 2.25012 3 2.25012H15C16.2392 2.25012 17.25 3.26091 17.25 4.50012V13.5001C17.25 14.7393 16.2392 15.7501 15 15.7501H3C1.76079 15.7501 0.75 14.7393 0.75 13.5001V4.50012Z" fill="#0291A0"/>
<path id="Vector (Stroke)_2" fill-rule="evenodd" clip-rule="evenodd" d="M0.88564 4.06997C1.12318 3.73063 1.59082 3.6481 1.93016 3.88564L9.00006 8.83457L16.07 3.88564C16.4093 3.6481 16.877 3.73063 17.1145 4.06997C17.352 4.4093 17.2695 4.87695 16.9302 5.11449L9.43016 10.3645C9.17192 10.5453 8.82821 10.5453 8.56997 10.3645L1.06997 5.11449C0.730631 4.87695 0.648105 4.4093 0.88564 4.06997Z" fill="#0291A0"/>
</g>
</svg>
