<svg width="20" height="20" viewBox="0 0 20 20" fill="none" xmlns="http://www.w3.org/2000/svg">
<g id="svgexport-6 (4) 1">
<g id="Group">
<g id="_x30_1._Facebook">
<path id="Icon_11_" d="M8.14245 11.065C8.08321 11.065 6.77992 11.065 6.18751 11.065C5.87156 11.065 5.77283 10.9465 5.77283 10.6503C5.77283 9.86045 5.77283 9.05083 5.77283 8.26095C5.77283 7.945 5.89131 7.84627 6.18751 7.84627H8.14245C8.14245 7.78703 8.14245 6.64171 8.14245 6.10855C8.14245 5.31867 8.28068 4.56829 8.67561 3.87715C9.0903 3.16627 9.6827 2.69234 10.4331 2.41589C10.9268 2.23817 11.4204 2.15918 11.9536 2.15918H13.8888C14.1652 2.15918 14.2837 2.27766 14.2837 2.55412V4.80526C14.2837 5.08171 14.1652 5.20019 13.8888 5.20019C13.3556 5.20019 12.8224 5.20019 12.2893 5.21994C11.7561 5.21994 11.4797 5.47665 11.4797 6.02956C11.4599 6.62196 11.4797 7.19462 11.4797 7.80677H13.7703C14.0862 7.80677 14.2047 7.92526 14.2047 8.24121V10.6306C14.2047 10.9465 14.106 11.0453 13.7703 11.0453C13.0594 11.0453 11.5389 11.0453 11.4797 11.0453V17.4827C11.4797 17.8184 11.3809 17.9369 11.0255 17.9369C10.1961 17.9369 9.3865 17.9369 8.55713 17.9369C8.26093 17.9369 8.14245 17.8184 8.14245 17.5222C8.14245 15.4488 8.14245 11.1242 8.14245 11.065Z" fill="white"/>
</g>
</g>
</g>
</svg>
