<svg width="42" height="42" viewBox="0 0 42 42" fill="none" xmlns="http://www.w3.org/2000/svg">
<g id="Shopping checkout 1" clip-path="url(#clip0_22_334)">
<path id="Vector" d="M0 0C2.81531 0 5.63062 0 8.53125 0C11.8125 10.4888 10.1719 4.59375 12.4688 14.7246C23.625 14.3965 32.0644 13.4531 42.3281 13.4531C40.3594 21.3281 40.0312 21.6562 36.75 31.5C28.7372 31.5 20.7244 31.5 12.4688 31.5C11.233 27.7927 10.081 24.1996 9.1593 20.4232C9.04556 19.9655 8.93181 19.5077 8.81462 19.0361C8.45819 17.5995 8.10501 16.1621 7.75195 14.7246C7.50821 13.7398 7.26426 12.755 7.02008 11.7702C6.42757 9.37866 5.83798 6.98641 5.25 4.59375C3.5175 4.37719 1.785 4.16062 0 3.9375C0 2.63812 0 1.33875 0 0ZM13.125 17.7188C13.5926 23.1003 13.5926 23.1003 15.75 27.5625C17.0623 27.62 18.3765 27.6327 19.6901 27.6266C20.886 27.6234 20.886 27.6234 22.1061 27.6202C22.9457 27.6147 23.7853 27.6092 24.6504 27.6035C25.9136 27.5991 25.9136 27.5991 27.2023 27.5945C29.2912 27.5868 31.3799 27.576 33.4688 27.5625C33.9099 26.2923 34.3465 25.0205 34.7812 23.748C35.0249 23.04 35.2685 22.3319 35.5195 21.6024C36.188 19.7064 36.8442 19.0501 36.75 17.0625C29.1703 17.0625 20.9344 17.7188 13.125 17.7188Z" fill="#0291A0"/>
<path id="Vector_2" d="M27.5625 0C30.6279 1.02179 32.8696 2.68044 35.4375 4.59375C34.6449 6.97168 33.9304 7.3186 31.8691 8.6543C31.3421 9.00198 30.8151 9.34967 30.2721 9.70789C28.875 10.5 28.875 10.5 27.5625 10.5C27.5625 9.41719 27.5625 8.33438 27.5625 7.21875C24.0975 7.21875 20.6325 7.21875 17.0625 7.21875C17.0625 5.91937 17.0625 4.62 17.0625 3.28125C20.5275 3.28125 23.9925 3.28125 27.5625 3.28125C27.5625 2.19844 27.5625 1.11563 27.5625 0Z" fill="#0291A0"/>
<path id="Vector_3" d="M33.4689 33.4688C34.7814 34.5352 34.7814 34.5352 35.4377 36.0938C35.2229 40.246 35.2229 40.246 33.4689 42C28.9381 42.3596 28.9381 42.3596 26.9064 41.3438C25.8351 39.2012 25.8225 37.1188 26.2502 34.7813C28.2505 32.1408 30.4909 32.6566 33.4689 33.4688Z" fill="#0291A0"/>
<path id="Vector_4" d="M19.1133 32.8535C21.9791 33.788 21.9791 33.788 22.9688 35.4375C23.2066 37.6577 23.3522 39.2883 22.3125 41.3027C20.1861 42.4324 18.0997 42.3476 15.75 42C14.4375 41.3027 14.4375 41.3027 13.7812 40.0313C13.4531 37.7754 13.4531 37.7754 13.7812 35.4375C15.5364 33.3726 16.386 32.799 19.1133 32.8535Z" fill="#0291A0"/>
</g>
<defs>
<clipPath id="clip0_22_334">
<rect width="42" height="42" fill="white"/>
</clipPath>
</defs>
</svg>
