<svg width="18" height="18" viewBox="0 0 18 18" fill="none" xmlns="http://www.w3.org/2000/svg">
<g id="Discovery">
<path id="Fill 1" fill-rule="evenodd" clip-rule="evenodd" d="M8.36658 8.34326L7.49408 11.1324L10.2824 10.2591L11.1557 7.46992L8.36658 8.34326ZM6.54074 12.7099C6.37741 12.7099 6.21741 12.6458 6.09824 12.5274C5.93408 12.3624 5.87408 12.1199 5.94408 11.8991L7.27158 7.65826C7.33241 7.46159 7.48574 7.30909 7.68074 7.24826L11.9216 5.92076C12.1441 5.84992 12.3857 5.91076 12.5507 6.07492C12.7149 6.23992 12.7749 6.48242 12.7049 6.70326L11.3782 10.9441C11.3174 11.1399 11.1632 11.2933 10.9682 11.3541L6.72741 12.6816C6.66574 12.7008 6.60241 12.7099 6.54074 12.7099Z" fill="black"/>
<g id="Group 5">
<mask id="mask0_22_376" style="mask-type:luminance" maskUnits="userSpaceOnUse" x="0" y="0" width="18" height="18">
<path id="Clip 4" fill-rule="evenodd" clip-rule="evenodd" d="M0.69043 0.666626H17.9586V17.9347H0.69043V0.666626Z" fill="white"/>
</mask>
<g mask="url(#mask0_22_376)">
<path id="Fill 3" fill-rule="evenodd" clip-rule="evenodd" d="M9.32447 1.91663C5.25281 1.91663 1.94031 5.22996 1.94031 9.30079C1.94031 13.3725 5.25281 16.685 9.32447 16.685C13.3961 16.685 16.7086 13.3725 16.7086 9.30079C16.7086 5.22996 13.3961 1.91663 9.32447 1.91663ZM9.32447 17.935C4.56364 17.935 0.690308 14.0616 0.690308 9.30079C0.690308 4.53996 4.56364 0.666626 9.32447 0.666626C14.0853 0.666626 17.9586 4.53996 17.9586 9.30079C17.9586 14.0616 14.0853 17.935 9.32447 17.935Z" fill="black"/>
</g>
</g>
</g>
</svg>
