<svg width="56" height="40" viewBox="0 0 56 40" fill="none" xmlns="http://www.w3.org/2000/svg">
<rect x="0.438943" y="1.2783" width="55.0824" height="37.5199" rx="4.39062" fill="white" stroke="#D9D9D9" stroke-width="0.798295"/>
<path fill-rule="evenodd" clip-rule="evenodd" d="M26.4316 26.0383V21.2151H28.921C29.9411 21.2151 30.8021 20.8733 31.504 20.1992L31.6724 20.0283C32.9545 18.6326 32.8703 16.4583 31.504 15.1671C30.8208 14.4835 29.8849 14.1132 28.921 14.1322H24.9249V26.0383H26.4316ZM26.4319 19.7528V15.5942H28.9591C29.502 15.5942 30.0168 15.8031 30.4005 16.1829C31.2148 16.9804 31.2336 18.3097 30.4473 19.1357C30.0636 19.5439 29.5207 19.7718 28.9591 19.7528H26.4319ZM38.7007 18.5281C38.055 17.9299 37.1753 17.6261 36.0616 17.6261C34.6298 17.6261 33.5535 18.1578 32.8423 19.2117L34.1712 20.0567C34.6579 19.3351 35.3223 18.9743 36.1646 18.9743C36.698 18.9743 37.2127 19.1737 37.6151 19.5345C38.0082 19.8763 38.2328 20.37 38.2328 20.8922V21.2435C37.6526 20.9207 36.9226 20.7498 36.0242 20.7498C34.976 20.7498 34.1338 20.9967 33.5068 21.4999C32.8797 22.0031 32.5615 22.6677 32.5615 23.5127C32.5428 24.2818 32.8704 25.0129 33.4506 25.5066C34.0402 26.0383 34.7889 26.3041 35.6686 26.3041C36.7074 26.3041 37.5309 25.8389 38.1579 24.9084H38.2234V26.0383H39.6647V21.0157C39.6647 19.9618 39.3465 19.1262 38.7007 18.5281ZM34.6114 24.5382C34.3025 24.3103 34.1153 23.94 34.1153 23.5412C34.1153 23.095 34.3212 22.7247 34.7237 22.4304C35.1355 22.1361 35.6503 21.9841 36.2587 21.9841C37.1011 21.9746 37.7563 22.1645 38.2243 22.5443C38.2243 23.1899 37.9716 23.7501 37.4755 24.2249C37.0262 24.6806 36.4178 24.9369 35.7814 24.9369C35.3602 24.9464 34.9483 24.804 34.6114 24.5382ZM42.9027 29.6177L47.9376 17.8919H46.2998L43.9696 23.7406H43.9415L41.5551 17.8919H39.9173L43.2209 25.5161L41.3492 29.6177H42.9027Z" fill="#3C4043"/>
<path d="M21.2299 20.1706C21.2299 19.7054 21.1925 19.2402 21.1176 18.7844H14.7632V21.4144H18.4036C18.2539 22.2594 17.7673 23.019 17.056 23.4937V25.2027H19.2272C20.5 24.0159 21.2299 22.2594 21.2299 20.1706Z" fill="#4285F4"/>
<path d="M14.7635 26.8548C16.579 26.8548 18.1138 26.2472 19.2275 25.2028L17.0563 23.4937C16.448 23.9115 15.6713 24.1489 14.7635 24.1489C13.0041 24.1489 11.5161 22.9431 10.9827 21.329H8.74597V23.095C9.88771 25.4021 12.218 26.8548 14.7635 26.8548Z" fill="#34A853"/>
<path d="M10.9828 21.329C10.702 20.484 10.702 19.563 10.9828 18.7085V16.952H8.74577C7.78169 18.8794 7.78169 21.1581 8.74577 23.0855L10.9828 21.329Z" fill="#FBBC04"/>
<path d="M14.7635 15.8886C15.7274 15.8696 16.6539 16.2399 17.3464 16.914L19.2743 14.9581C18.0483 13.7998 16.4387 13.1637 14.7635 13.1827C12.218 13.1827 9.88771 14.6448 8.74597 16.952L10.9827 18.718C11.5161 17.0944 13.0041 15.8886 14.7635 15.8886Z" fill="#EA4335"/>
</svg>
