<svg width="21" height="20" viewBox="0 0 21 20" fill="none" xmlns="http://www.w3.org/2000/svg">
<g id="Frame">
<path id="Vector" fill-rule="evenodd" clip-rule="evenodd" d="M10.4646 1.00892C10.7655 0.77486 11.1868 0.77486 11.4877 1.00892L18.9877 6.84225C19.1907 7.00012 19.3095 7.24288 19.3095 7.50004V16.6667C19.3095 17.3298 19.0461 17.9656 18.5772 18.4345C18.1084 18.9033 17.4726 19.1667 16.8095 19.1667H5.14282C4.47978 19.1667 3.8439 18.9033 3.37506 18.4345C2.90621 17.9656 2.64282 17.3298 2.64282 16.6667V7.50004C2.64282 7.24288 2.76155 7.00012 2.96454 6.84225L10.4646 1.00892ZM4.30949 7.90761V16.6667C4.30949 16.8877 4.39729 17.0997 4.55356 17.256C4.70985 17.4122 4.92181 17.5 5.14282 17.5H16.8095C17.0305 17.5 17.2425 17.4122 17.3987 17.256C17.555 17.0997 17.6428 16.8877 17.6428 16.6667V7.90761L10.9762 2.72242L4.30949 7.90761Z" fill="#0291A0"/>
<path id="Vector_2" fill-rule="evenodd" clip-rule="evenodd" d="M7.64282 9.99996C7.64282 9.53971 8.01592 9.16663 8.47616 9.16663H13.4762C13.9364 9.16663 14.3095 9.53971 14.3095 9.99996V18.3333C14.3095 18.7935 13.9364 19.1666 13.4762 19.1666C13.0159 19.1666 12.6428 18.7935 12.6428 18.3333V10.8333H9.30949V18.3333C9.30949 18.7935 8.93639 19.1666 8.47616 19.1666C8.01592 19.1666 7.64282 18.7935 7.64282 18.3333V9.99996Z" fill="#0291A0"/>
</g>
</svg>
