<svg width="21" height="20" viewBox="0 0 21 20" fill="none" xmlns="http://www.w3.org/2000/svg">
<g id="svgexport-6 (5) 1" clip-path="url(#clip0_1_1181)">
<g id="Group">
<path id="Vector" d="M20.1924 5.98064C20.146 4.92957 19.976 4.20697 19.7326 3.58082C19.4814 2.91618 19.0949 2.32113 18.5887 1.82647C18.094 1.3241 17.495 0.93374 16.8381 0.686482C16.2083 0.442998 15.4895 0.273027 14.4384 0.226685C13.3795 0.176418 13.0433 0.164795 10.3576 0.164795C7.67186 0.164795 7.33569 0.176418 6.28069 0.22276C5.22962 0.269102 4.50702 0.439224 3.88102 0.682558C3.21623 0.93374 2.62118 1.32018 2.12651 1.82647C1.62415 2.32113 1.23394 2.92011 0.986531 3.57705C0.743047 4.20697 0.573076 4.92565 0.526734 5.97672C0.476467 7.03564 0.464844 7.37181 0.464844 10.0575C0.464844 12.7433 0.476467 13.0794 0.522809 14.1344C0.569151 15.1855 0.739273 15.9081 0.982757 16.5342C1.23394 17.1989 1.62415 17.7939 2.12651 18.2886C2.62118 18.791 3.22016 19.1813 3.8771 19.4286C4.50702 19.6721 5.22569 19.842 6.27692 19.8884C7.33177 19.9349 7.66809 19.9463 10.3538 19.9463C13.0395 19.9463 13.3757 19.9349 14.4307 19.8884C15.4818 19.842 16.2044 19.6721 16.8304 19.4286C18.1598 18.9146 19.2109 17.8635 19.7249 16.5342C19.9682 15.9043 20.1383 15.1855 20.1847 14.1344C20.231 13.0794 20.2426 12.7433 20.2426 10.0575C20.2426 7.37181 20.2387 7.03564 20.1924 5.98064ZM18.411 14.0571C18.3684 15.0232 18.2061 15.5449 18.0709 15.8927C17.7385 16.7545 17.0545 17.4384 16.1928 17.7708C15.845 17.9061 15.3195 18.0684 14.3572 18.1108C13.3138 18.1573 13.0009 18.1687 10.3615 18.1687C7.72213 18.1687 7.40528 18.1573 6.36568 18.1108C5.39959 18.0684 4.8779 17.9061 4.53011 17.7708C4.10126 17.6123 3.7109 17.3612 3.39405 17.0327C3.06558 16.7119 2.8144 16.3255 2.6559 15.8966C2.52065 15.5488 2.35838 15.0232 2.31596 14.0611C2.26947 13.0177 2.25799 12.7046 2.25799 10.0652C2.25799 7.42585 2.26947 7.109 2.31596 6.06955C2.35838 5.10347 2.52065 4.58178 2.6559 4.23399C2.8144 3.80498 3.06558 3.41477 3.39798 3.09778C3.7186 2.76931 4.10503 2.51812 4.53404 2.35978C4.88183 2.22452 5.40744 2.06225 6.3696 2.01968C7.41298 1.97334 7.72605 1.96172 10.3653 1.96172C13.0086 1.96172 13.3215 1.97334 14.3611 2.01968C15.3272 2.06225 15.8489 2.22452 16.1967 2.35978C16.6255 2.51812 17.0159 2.76931 17.3327 3.09778C17.6612 3.41855 17.9124 3.80498 18.0709 4.23399C18.2061 4.58178 18.3684 5.10724 18.411 6.06955C18.4573 7.11293 18.4689 7.42585 18.4689 10.0652C18.4689 12.7046 18.4573 13.0138 18.411 14.0571Z" fill="white"/>
<path id="Vector_2" d="M10.3574 4.97595C7.55195 4.97595 5.27576 7.25199 5.27576 10.0576C5.27576 12.8632 7.55195 15.1392 10.3574 15.1392C13.163 15.1392 15.439 12.8632 15.439 10.0576C15.439 7.25199 13.163 4.97595 10.3574 4.97595ZM10.3574 13.3539C8.53736 13.3539 7.06106 11.8777 7.06106 10.0576C7.06106 8.2374 8.53736 6.76125 10.3574 6.76125C12.1775 6.76125 13.6537 8.2374 13.6537 10.0576C13.6537 11.8777 12.1775 13.3539 10.3574 13.3539Z" fill="white"/>
<path id="Vector_3" d="M16.8264 4.77507C16.8264 5.4302 16.2952 5.9614 15.6399 5.9614C14.9848 5.9614 14.4536 5.4302 14.4536 4.77507C14.4536 4.11979 14.9848 3.58875 15.6399 3.58875C16.2952 3.58875 16.8264 4.11979 16.8264 4.77507Z" fill="white"/>
</g>
</g>
<defs>
<clipPath id="clip0_1_1181">
<rect width="19.7468" height="19.7816" fill="white" transform="translate(0.447266 0.164795)"/>
</clipPath>
</defs>
</svg>
