<svg width="21" height="20" viewBox="0 0 21 20" fill="none" xmlns="http://www.w3.org/2000/svg">
<g id="svgexport-6 (7) 1">
<g id="Group">
<g id="_x31_0.Linkedin">
<path id="Vector" d="M18.5783 17.937V12.1512C18.5783 9.30765 17.9661 7.1355 14.6486 7.1355C13.0491 7.1355 11.9828 8.00436 11.5484 8.83373H11.5089V7.39221H8.36914V17.937H11.6471V12.7041C11.6471 11.3218 11.9038 9.99879 13.6021 9.99879C15.2805 9.99879 15.3003 11.5588 15.3003 12.7831V17.9173H18.5783V17.937Z" fill="white"/>
<path id="Vector_2" d="M3.03748 7.39221H6.31545V17.937H3.03748V7.39221Z" fill="white"/>
<path id="Vector_3" d="M4.67646 2.13953C3.62988 2.13953 2.78076 2.98864 2.78076 4.03522C2.78076 5.0818 3.62988 5.95067 4.67646 5.95067C5.72304 5.95067 6.57215 5.0818 6.57215 4.03522C6.57215 2.98864 5.72304 2.13953 4.67646 2.13953Z" fill="white"/>
</g>
</g>
</g>
</svg>
