<svg width="18" height="18" viewBox="0 0 18 18" fill="none" xmlns="http://www.w3.org/2000/svg">
<g id="li:map-pin" clip-path="url(#clip0_1_550)">
<path id="Vector (Stroke)" fill-rule="evenodd" clip-rule="evenodd" d="M9 1.50012C7.4087 1.50012 5.88258 2.13226 4.75736 3.25748C3.63214 4.3827 3 5.90882 3 7.50012C3 9.82367 4.5118 12.0783 6.16946 13.8281C6.98296 14.6868 7.799 15.3897 8.41251 15.8783C8.64084 16.0601 8.84027 16.2115 9 16.3296C9.15973 16.2115 9.35916 16.0601 9.58749 15.8783C10.201 15.3897 11.017 14.6868 11.8305 13.8281C13.4882 12.0783 15 9.82367 15 7.50012C15 5.90882 14.3679 4.3827 13.2426 3.25748C12.1174 2.13226 10.5913 1.50012 9 1.50012ZM9 17.2501C8.58397 17.8742 8.58379 17.874 8.58357 17.8739L8.58143 17.8725L8.57643 17.8691L8.55924 17.8575C8.54464 17.8476 8.52381 17.8333 8.49717 17.8149C8.4439 17.778 8.36735 17.7242 8.27084 17.6545C8.07791 17.5152 7.80477 17.3118 7.47812 17.0517C6.826 16.5324 5.95454 15.7822 5.08054 14.8597C3.3632 13.0469 1.5 10.4266 1.5 7.50012C1.5 5.511 2.29018 3.60334 3.6967 2.19682C5.10322 0.790298 7.01088 0.00012207 9 0.00012207C10.9891 0.00012207 12.8968 0.790298 14.3033 2.19682C15.7098 3.60334 16.5 5.511 16.5 7.50012C16.5 10.4266 14.6368 13.0469 12.9195 14.8597C12.0455 15.7822 11.174 16.5324 10.5219 17.0517C10.1952 17.3118 9.92209 17.5152 9.72916 17.6545C9.63265 17.7242 9.5561 17.778 9.50283 17.8149C9.47619 17.8333 9.45536 17.8476 9.44076 17.8575L9.42357 17.8691L9.41857 17.8725L9.41699 17.8735C9.41678 17.8737 9.41603 17.8742 9 17.2501ZM9 17.2501L9.41603 17.8742C9.1641 18.0421 8.83549 18.0418 8.58357 17.8739L9 17.2501Z" fill="#0291A0"/>
<path id="Vector (Stroke)_2" fill-rule="evenodd" clip-rule="evenodd" d="M9 6.00012C8.17157 6.00012 7.5 6.67169 7.5 7.50012C7.5 8.32855 8.17157 9.00012 9 9.00012C9.82843 9.00012 10.5 8.32855 10.5 7.50012C10.5 6.67169 9.82843 6.00012 9 6.00012ZM6 7.50012C6 5.84327 7.34315 4.50012 9 4.50012C10.6569 4.50012 12 5.84327 12 7.50012C12 9.15698 10.6569 10.5001 9 10.5001C7.34315 10.5001 6 9.15698 6 7.50012Z" fill="#0291A0"/>
</g>
<defs>
<clipPath id="clip0_1_550">
<rect width="18" height="18" fill="white"/>
</clipPath>
</defs>
</svg>
