<svg width="56" height="40" viewBox="0 0 56 40" fill="none" xmlns="http://www.w3.org/2000/svg">
<rect x="0.478738" y="1.2783" width="55.0824" height="37.5199" rx="4.39062" fill="white" stroke="#D9D9D9" stroke-width="0.798295"/>
<path fill-rule="evenodd" clip-rule="evenodd" d="M28.419 28.2717C26.5166 29.9135 24.0488 30.9045 21.3522 30.9045C15.3352 30.9045 10.4574 25.9702 10.4574 19.8833C10.4574 13.7964 15.3352 8.86206 21.3522 8.86206C24.0488 8.86206 26.5166 9.85315 28.4191 11.4949C30.3215 9.85318 32.7893 8.8621 35.4859 8.8621C41.5029 8.8621 46.3807 13.7965 46.3807 19.8833C46.3807 25.9702 41.5029 30.9046 35.4859 30.9046C32.7893 30.9046 30.3215 29.9135 28.419 28.2717Z" fill="#ED0006"/>
<path fill-rule="evenodd" clip-rule="evenodd" d="M28.4191 28.2717C30.7616 26.2502 32.247 23.2422 32.247 19.8833C32.247 16.5244 30.7616 13.5164 28.4191 11.4949C30.3215 9.85315 32.7893 8.86206 35.4859 8.86206C41.503 8.86206 46.3807 13.7964 46.3807 19.8833C46.3807 25.9702 41.503 30.9045 35.4859 30.9045C32.7893 30.9045 30.3215 29.9135 28.4191 28.2717Z" fill="#F9A000"/>
<path fill-rule="evenodd" clip-rule="evenodd" d="M28.419 28.2717C30.7615 26.2502 32.2469 23.2423 32.2469 19.8834C32.2469 16.5245 30.7615 13.5165 28.419 11.495C26.0765 13.5165 24.5912 16.5245 24.5912 19.8834C24.5912 23.2423 26.0765 26.2502 28.419 28.2717Z" fill="#FF5E00"/>
</svg>
