<svg width="21" height="20" viewBox="0 0 21 20" fill="none" xmlns="http://www.w3.org/2000/svg">
<g id="hot deals 1">
<g id="Group">
<path id="Vector" d="M13.9921 3.72423C13.0397 2.91709 12.0588 2.07978 11.0659 1.09011L10.5 0.528198L9.94447 1.0909C8.15717 2.88296 7.31272 5.63454 6.94605 7.28534C6.6654 6.85034 6.45714 6.37272 6.32939 5.87106L5.99367 4.57502L5.01748 5.49249C3.30717 7.09804 2.16669 8.6909 2.16669 11.2417C2.15072 13.0816 2.74996 14.874 3.86925 16.3344C4.98852 17.7947 6.56365 18.8393 8.34447 19.302C8.88104 19.4325 9.42868 19.5122 9.98019 19.5401C10.1526 19.562 10.3262 19.5733 10.5 19.5742C10.5913 19.5742 10.6802 19.5663 10.7691 19.5607C12.9311 19.4957 14.9827 18.5907 16.4883 17.0378C17.9939 15.4848 18.8352 13.4062 18.8334 11.2433C18.8334 7.83534 16.5897 5.93058 13.9921 3.72423ZM10.6588 17.9735C10.5794 17.9735 10.5 17.9814 10.4159 17.9806C9.70155 17.9587 9.02366 17.66 8.52546 17.1477C8.02727 16.6353 7.74778 15.9492 7.74605 15.2345C7.74605 14.2282 8.28574 13.7266 9.50717 12.6869C9.8151 12.425 10.15 12.1401 10.5024 11.814C10.8112 12.094 11.1112 12.3481 11.3881 12.5838C12.6151 13.625 13.2556 14.2163 13.2556 15.2321C13.2542 15.9341 12.9846 16.6091 12.5018 17.1187C12.019 17.6283 11.3596 17.9341 10.6588 17.9735ZM14.6429 16.5679L14.627 16.579C14.7695 16.145 14.8423 15.6913 14.8429 15.2345C14.8429 13.4369 13.6636 12.4354 12.4159 11.3759C11.9738 11.0012 11.5175 10.614 11.0619 10.1583L10.5 9.59729L9.93891 10.1583C9.42463 10.6719 8.92145 11.1004 8.4778 11.4782C7.23336 12.5369 6.15796 13.452 6.15796 15.2345C6.15966 15.7109 6.2401 16.1837 6.39606 16.6338C5.56991 15.9994 4.90159 15.1826 4.44327 14.2473C3.98496 13.312 3.74906 12.2833 3.754 11.2417C3.74094 9.849 4.27998 8.50782 5.2532 7.51153C5.42084 7.85163 5.61957 8.1755 5.84685 8.47899C6.01285 8.70299 6.24077 8.87353 6.50251 8.96956C6.76425 9.0656 7.04838 9.08294 7.31986 9.01947C7.59605 8.95798 7.84867 8.81825 8.04754 8.61699C8.24642 8.41573 8.38311 8.16144 8.44129 7.88454C8.77361 6.06046 9.49234 4.32857 10.5493 2.80518C11.3865 3.59883 12.2159 4.30121 12.9643 4.93692C15.45 7.04804 17.25 8.57344 17.25 11.2464C17.2519 12.274 17.0178 13.2881 16.5656 14.2108C16.1135 15.1335 15.4554 15.9399 14.6421 16.5679H14.6429Z" fill="#0C2519"/>
</g>
</g>
</svg>
