<svg width="48" height="48" viewBox="0 0 48 48" fill="none" xmlns="http://www.w3.org/2000/svg">
<g id="Logo" clip-path="url(#clip0_1_619)">
<path id="Vector" d="M25.44 6.02411e-05C25.6776 0.11886 25.6776 0.11886 25.92 0.24006C25.92 0.39846 25.92 0.55686 25.92 0.72006C26.1081 0.73491 26.2962 0.74976 26.49 0.76506C29.0218 1.33254 30.8484 2.82128 32.3409 4.90881C34.32 8.06341 34.32 8.06341 34.32 9.60006C34.4576 9.59755 34.5952 9.59503 34.737 9.59244C41.3514 9.48764 41.3514 9.48764 42.96 10.5601C42.8759 11.3382 42.8251 11.6677 42.225 12.1951C41.9948 12.3361 41.9948 12.3361 41.76 12.4801C41.8392 12.5593 41.9184 12.6385 42 12.7201C42.0561 13.1638 42.0991 13.6092 42.135 14.0551C42.1551 14.2979 42.1752 14.5408 42.1959 14.791C42.2105 14.9788 42.225 15.1666 42.24 15.3601C42.9244 15.5084 43.4701 15.6224 44.16 15.6001C44.8422 15.2134 44.8422 15.2134 45.12 14.4001C45.1238 13.505 45.0222 12.6428 44.88 11.7601C45.9418 12.2554 46.5536 12.8103 46.9922 13.9313C47.3935 15.3594 47.1994 16.194 46.56 17.5201C46.4808 17.5993 46.4016 17.6785 46.32 17.7601C46.3027 18.1647 46.2999 18.5701 46.305 18.9751C46.3072 19.1956 46.3093 19.4162 46.3116 19.6435C46.3143 19.814 46.3171 19.9844 46.32 20.1601C46.5576 20.2393 46.7952 20.3185 47.04 20.4001C47.28 21.1201 47.28 21.1201 47.04 21.8401C47.1919 22.164 47.3522 22.4841 47.52 22.8001C47.52 23.0377 47.52 23.2753 47.52 23.5201C47.5992 23.7577 47.6784 23.9953 47.76 24.2401C47.76 24.4777 47.76 24.7153 47.76 24.9601C47.8392 25.1185 47.9184 25.2769 48 25.4401C48.0704 26.3085 48.0667 27.1791 48.075 28.0501C48.082 28.2917 48.0889 28.5333 48.0961 28.7822C48.1114 30.5607 48.1114 30.5607 47.5528 31.3594C46.9047 31.7647 46.5907 31.8302 45.84 31.6801C44.8292 30.9162 44.6521 30.0554 44.46 28.8601C44.43 28.6927 44.4 28.5253 44.3691 28.3529C44.296 27.9425 44.2275 27.5314 44.16 27.1201C44.0035 27.172 43.8469 27.224 43.6856 27.2776C41.5303 27.9642 41.5303 27.9642 40.32 27.8401C40.2408 27.7609 40.1616 27.6817 40.08 27.6001C40.0274 27.8813 39.9748 28.1625 39.9206 28.4522C39.1616 32.3004 37.7803 35.4618 34.425 37.7701C33.4608 38.3672 32.4645 38.8748 31.44 39.3601C31.2816 39.4393 31.1232 39.5185 30.96 39.6001C31.158 39.605 31.356 39.61 31.56 39.6151C32.4299 39.8481 32.6889 40.0421 33.33 40.6351C34.984 42.153 36.7648 42.6774 38.9034 43.2391C40.4559 43.6617 40.4559 43.6617 41.04 44.4001C41.16 45.2401 41.16 45.2401 41.04 46.0801C40.56 46.5001 40.56 46.5001 39.84 46.8001C39.6977 46.8638 39.5554 46.9275 39.4088 46.9932C36.6781 48.14 32.4508 48.3063 29.6653 47.3157C28.7898 46.9024 28.3907 46.6661 27.84 45.8401C27.5877 43.9296 28.0253 42.1437 28.56 40.3201C28.4177 40.3372 28.2755 40.3544 28.1289 40.372C26.5766 40.545 25.0509 40.5893 23.49 40.5751C23.2604 40.574 23.0309 40.5729 22.7944 40.5718C22.2362 40.569 21.6781 40.5651 21.12 40.5601C21.2784 40.7185 21.4368 40.8769 21.6 41.0401C22.1316 42.6875 22.3602 44.6109 22.08 46.3201C21.111 47.5624 19.9894 47.7628 18.48 48.0001C17.6137 48.0688 16.7537 48.0802 15.885 48.0751C15.5372 48.0736 15.5372 48.0736 15.1823 48.072C13.0242 48.0379 10.4917 47.9318 8.88 46.3201C8.7 45.4801 8.7 45.4801 8.88 44.6401C9.71818 43.8019 10.5286 43.6107 11.67 43.3501C14.3144 42.7373 16.3262 41.5042 18.24 39.6001C18.0052 39.4256 18.0052 39.4256 17.7656 39.2476C15.3156 37.3685 14.2239 35.5195 13.0603 32.716C12.7998 31.9701 12.7998 31.9701 12.48 31.6801C12.619 33.1232 12.7736 34.5622 12.96 36.0001C11.4186 36.7294 9.81977 37.1532 8.175 37.5901C7.90105 37.6649 7.6271 37.7398 7.34484 37.8169C5.93516 38.1948 4.57419 38.508 3.12 38.6401C2.29339 35.8749 2.29339 35.8749 2.4 34.5601C2.1723 34.57 1.9446 34.5799 1.71 34.5901C0.96 34.5601 0.96 34.5601 0.48 34.0801C0.585 33.5851 0.585 33.5851 0.72 33.1201C0.6408 33.0409 0.5616 32.9617 0.48 32.8801C0.429252 32.381 0.391429 31.8807 0.36 31.3801C0.29906 30.4181 0.212239 29.501 0 28.5601C0.3564 28.4413 0.3564 28.4413 0.72 28.3201C0.668025 28.0811 0.668025 28.0811 0.615 27.8372C0.57045 27.6253 0.5259 27.4134 0.48 27.1951C0.43545 26.9862 0.3909 26.7774 0.345 26.5622C0.242467 25.9351 0.221721 25.3541 0.24 24.7201C1.70468 24.0251 3.19735 23.6442 4.77 23.2651C5.01905 23.2036 5.26809 23.1422 5.52469 23.079C6.95922 22.7271 8.39691 22.3949 9.84 22.0801C10.2078 23.1485 10.5606 24.1994 10.8 25.3051C10.9558 26.2168 10.9558 26.2168 11.76 26.6401C11.925 27.3901 11.925 27.3901 12 28.0801C12.0621 27.2855 12.1143 26.4905 12.165 25.6951C12.1912 25.3616 12.1912 25.3616 12.218 25.0215C12.3086 23.5025 12.1553 22.2734 11.52 20.8801C11.4408 20.8009 11.3616 20.7217 11.28 20.6401C11.2702 20.0801 11.2698 19.52 11.28 18.9601C11.4158 18.9186 11.5516 18.8771 11.6916 18.8344C12.2773 18.61 12.7145 18.4001 13.2 18.0001C13.5137 17.1878 13.5576 16.4603 13.44 15.6001C13.2866 15.412 13.1331 15.2239 12.975 15.0301C12.1463 13.9754 12.3517 12.8096 12.48 11.5201C13.1362 7.73415 14.7846 5.08204 17.8922 2.78256C19.5139 1.72729 21.2515 0.929557 23.1019 0.370373C23.9623 0.102218 24.5034 -0.0389661 25.44 6.02411e-05ZM39.795 12.9151C38.0757 13.5021 36.3449 13.8382 34.56 14.1601C35.0261 16.7002 35.0261 16.7002 36.3628 18.8232C36.8437 19.3305 36.984 19.9085 37.2103 20.5585C37.64 21.609 38.2397 22.5846 38.88 23.5201C38.9592 23.5201 39.0384 23.5201 39.12 23.5201C39.12 23.0449 39.12 22.5697 39.12 22.0801C39.2499 22.0207 39.3799 21.9613 39.5138 21.9001C40.2068 21.5329 40.8235 21.0981 41.46 20.6401C41.6964 20.4718 41.9327 20.3035 42.1763 20.1301C42.4454 19.9073 42.4454 19.9073 42.72 19.6801C42.72 19.5217 42.72 19.3633 42.72 19.2001C42.8784 19.1209 43.0368 19.0417 43.2 18.9601C43.0416 18.9601 42.8832 18.9601 42.72 18.9601C42.72 18.8017 42.72 18.6433 42.72 18.4801C42.5369 18.3811 42.3537 18.2821 42.165 18.1801C41.3304 17.6366 41.1253 17.2617 40.8 16.3201C40.6267 14.8601 40.7172 13.7512 41.52 12.4801C40.8785 12.4801 40.3995 12.6972 39.795 12.9151Z" fill="#BC9343"/>
<path id="Vector_2" d="M44.88 11.76C45.9418 12.2554 46.5536 12.8102 46.9922 13.9313C47.3935 15.3593 47.1993 16.1939 46.56 17.52C46.4808 17.5992 46.4016 17.6784 46.32 17.76C46.3027 18.1647 46.2999 18.57 46.305 18.975C46.3072 19.1956 46.3093 19.4162 46.3116 19.6434C46.3143 19.8139 46.3171 19.9844 46.32 20.16C46.5576 20.2392 46.7952 20.3184 47.04 20.4C47.28 21.12 47.28 21.12 47.04 21.84C47.1918 22.164 47.3521 22.4841 47.52 22.8C47.52 23.0376 47.52 23.2752 47.52 23.52C47.5992 23.7576 47.6784 23.9952 47.76 24.24C47.76 24.4776 47.76 24.7152 47.76 24.96C47.8392 25.1184 47.9184 25.2768 48 25.44C48.0704 26.3085 48.0667 27.179 48.075 28.05C48.082 28.2916 48.0889 28.5333 48.0961 28.7822C48.1114 30.5607 48.1114 30.5607 47.5528 31.3594C46.9046 31.7646 46.5907 31.8301 45.84 31.68C44.8292 30.9161 44.6521 30.0553 44.46 28.86C44.43 28.6926 44.4 28.5253 44.3691 28.3528C44.296 27.9425 44.2275 27.5313 44.16 27.12C44.0035 27.172 43.8469 27.224 43.6856 27.2775C41.5303 27.9641 41.5303 27.9641 40.32 27.84C40.2408 27.7608 40.1616 27.6816 40.08 27.6C40.0274 27.8812 39.9748 28.1625 39.9206 28.4522C39.1616 32.3004 37.7803 35.4618 34.425 37.77C33.4608 38.3671 32.4645 38.8747 31.44 39.36C31.2024 39.4788 31.2024 39.4788 30.96 39.6C31.257 39.6074 31.257 39.6074 31.56 39.615C32.4299 39.848 32.6889 40.042 33.33 40.635C34.9839 42.1529 36.7648 42.6774 38.9034 43.239C40.4559 43.6617 40.4559 43.6617 41.04 44.4C41.16 45.24 41.16 45.24 41.04 46.08C40.56 46.5 40.56 46.5 39.84 46.8C39.6977 46.8637 39.5554 46.9275 39.4087 46.9931C36.6781 48.14 32.4507 48.3062 29.6653 47.3156C28.7898 46.9023 28.3907 46.666 27.84 45.84C27.5877 43.9296 28.0253 42.1436 28.56 40.32C28.4177 40.3372 28.2754 40.3543 28.1289 40.372C26.5766 40.545 25.0509 40.5893 23.49 40.575C23.2604 40.5739 23.0309 40.5728 22.7944 40.5717C22.2362 40.5689 21.6781 40.565 21.12 40.56C21.3576 40.7976 21.3576 40.7976 21.6 41.04C22.1316 42.6874 22.3602 44.6108 22.08 46.32C21.111 47.5623 19.9894 47.7627 18.48 48C17.6137 48.0687 16.7537 48.0801 15.885 48.075C15.5372 48.0735 15.5372 48.0735 15.1823 48.072C13.0241 48.0379 10.4917 47.9318 8.88 46.32C8.7 45.48 8.7 45.48 8.88 44.64C9.71818 43.8018 10.5286 43.6106 11.67 43.35C14.3144 42.7373 16.3262 41.5042 18.24 39.6C18.1014 39.5016 17.9628 39.4032 17.82 39.3019C17.6418 39.1726 17.4636 39.0432 17.28 38.91C17.1018 38.7819 16.9236 38.6538 16.74 38.5219C16.6014 38.4025 16.4628 38.283 16.32 38.16C16.32 38.0016 16.32 37.8432 16.32 37.68C17.0231 37.7972 17.7262 37.9144 18.4294 38.0316C18.6837 38.074 18.938 38.1163 19.2 38.16C19.4193 38.2036 19.6387 38.2473 19.8647 38.2922C24.2237 38.8983 28.387 38.3168 32.16 36C34.105 34.5048 35.6282 32.2063 36.1472 29.7966C36.2518 28.9438 36.2806 28.1142 36.285 27.255C36.2884 26.9534 36.2918 26.6517 36.2953 26.3409C36.2231 25.1647 35.8902 24.1507 35.52 23.04C35.6372 22.5563 35.6372 22.5563 35.835 22.02C36.168 21.0868 36.4559 20.1548 36.72 19.2C36.7813 19.3275 36.8425 19.4549 36.9056 19.5863C37.2684 20.2933 37.6677 20.9746 38.07 21.66C38.2216 21.9186 38.3732 22.1773 38.5294 22.4438C38.6451 22.6405 38.7608 22.8373 38.88 23.04C38.9054 22.8944 38.9308 22.7487 38.9569 22.5987C39.2261 21.7427 39.9686 21.3324 40.665 20.82C40.8087 20.7099 40.9524 20.5997 41.1005 20.4863C42.1719 19.68 42.1719 19.68 42.72 19.68C42.72 19.284 42.72 18.888 42.72 18.48C42.5814 18.4652 42.4428 18.4503 42.3 18.435C41.5359 18.1591 41.2546 17.6984 40.8 17.04C40.3737 15.7612 40.3514 14.4167 40.875 13.17C41.0086 13.0215 41.1423 12.873 41.28 12.72C41.5176 12.72 41.7552 12.72 42 12.72C42.0792 13.5912 42.1584 14.4624 42.24 15.36C42.9244 15.5083 43.4701 15.6224 44.16 15.6C44.8422 15.2134 44.8422 15.2134 45.12 14.4C45.1238 13.5049 45.0222 12.6428 44.88 11.76Z" fill="#AF8A46"/>
<path id="Vector_3" d="M25.44 6.02415e-05C25.5984 0.0792602 25.7568 0.15846 25.92 0.24006C25.92 0.39846 25.92 0.55686 25.92 0.72006C26.1081 0.73491 26.2962 0.74976 26.49 0.76506C29.0219 1.33254 30.8484 2.82128 32.341 4.90881C34.32 8.06341 34.32 8.06341 34.32 9.60006C34.4576 9.59755 34.5952 9.59503 34.737 9.59244C41.3514 9.48764 41.3514 9.48764 42.96 10.5601C42.915 11.1141 42.915 11.1141 42.72 11.7601C39.1568 14.5438 33.0228 14.7208 28.77 14.6401C25.3417 14.6015 22.0059 14.7723 18.63 15.3901C16.9223 15.6937 14.8347 16.048 13.2366 15.2654C12.72 14.8801 12.72 14.8801 12.48 14.4001C12.2321 11.4726 12.807 8.24421 14.626 5.87256C16.9535 3.18472 19.6899 1.40148 23.1019 0.370373C23.9623 0.102218 24.5034 -0.0389661 25.44 6.02415e-05Z" fill="#46526B"/>
<path id="Vector_4" d="M34.56 14.16C34.6556 14.4462 34.7512 14.7324 34.8497 15.0272C34.978 15.4032 35.1065 15.7791 35.235 16.155C35.329 16.4379 35.329 16.4379 35.4249 16.7264C35.4875 16.9082 35.5502 17.09 35.6147 17.2772C35.6713 17.4444 35.7278 17.6115 35.7861 17.7838C35.9774 18.2612 35.9774 18.2612 36.3785 18.6096C36.72 18.96 36.72 18.96 36.81 19.77C36.72 20.64 36.72 20.64 36.3872 21.1922C35.9432 21.9351 35.718 22.6456 35.475 23.475C35.3511 23.8932 35.3511 23.8932 35.2247 24.3197C35.1638 24.531 35.1028 24.7423 35.04 24.96C34.8816 24.96 34.7232 24.96 34.56 24.96C34.5105 25.0986 34.461 25.2372 34.41 25.38C33.8892 26.2323 33.1089 26.6925 32.19 27.06C30.2009 27.294 28.8136 27.0098 27.195 25.77C25.913 24.6145 25.4553 22.9697 24.96 21.36C24.3264 21.2808 23.6928 21.2016 23.04 21.12C23.0202 21.3576 23.0004 21.5952 22.98 21.84C22.7587 23.3802 21.9578 24.8114 20.88 25.92C19.4484 26.9124 18.0671 27.3769 16.32 27.12C14.7434 26.6065 13.726 25.9133 12.8981 24.4716C12.72 24 12.72 24 12.72 23.04C12.5616 23.04 12.4032 23.04 12.24 23.04C12.1662 22.8103 12.1662 22.8103 12.091 22.576C12.0263 22.3777 11.9616 22.1794 11.895 21.975C11.831 21.7773 11.7669 21.5797 11.701 21.376C11.5629 20.8891 11.5629 20.8891 11.28 20.64C11.2702 20.0801 11.2698 19.5199 11.28 18.96C11.4158 18.9214 11.5517 18.8827 11.6916 18.8428C12.2939 18.6195 12.7149 18.4256 13.2 18C13.4452 17.117 13.4652 16.2727 13.44 15.36C13.7806 15.3726 13.7806 15.3726 14.1281 15.3853C16.1252 15.4347 18.0014 15.3063 19.963 14.9172C22.8804 14.3543 25.8411 14.3701 28.8 14.4C29.45 14.4065 30.1 14.4112 30.75 14.415C31.0328 14.4178 31.3156 14.4206 31.6069 14.4235C32.6071 14.3939 33.5617 14.16 34.56 14.16Z" fill="#4C4A47"/>
<path id="Vector_5" d="M9.36 23.76C9.42095 24.053 9.48189 24.346 9.54469 24.6478C10.1784 27.6832 10.8345 30.7075 11.6278 33.706C11.76 34.32 11.76 34.32 11.76 35.28C11.6199 35.3126 11.4798 35.3452 11.3354 35.3787C10.6868 35.5301 10.0384 35.6825 9.39 35.835C9.16973 35.8862 8.94945 35.9374 8.7225 35.9902C7.40448 36.3011 6.1112 36.6517 4.82145 37.0652C4.32 37.2 4.32 37.2 3.6 37.2C3.3624 35.8932 3.3624 35.8932 3.12 34.56C2.6349 34.56 2.1497 34.5702 1.665 34.59C0.96 34.56 0.96 34.56 0.48 34.08C0.585 33.585 0.585 33.585 0.72 33.12C0.6408 33.0408 0.5616 32.9616 0.48 32.88C0.429252 32.381 0.391429 31.8806 0.36 31.38C0.29906 30.418 0.212239 29.5009 0 28.56C0.2376 28.4808 0.4752 28.4016 0.72 28.32C0.7992 28.1616 0.8784 28.0032 0.96 27.84C0.96 27.9984 0.96 28.1568 0.96 28.32C1.1976 28.32 1.4352 28.32 1.68 28.32C1.5216 27.3696 1.3632 26.4192 1.2 25.44C1.99989 25.2096 2.7999 24.9797 3.6 24.75C3.8243 24.6854 4.04859 24.6207 4.27969 24.5541C4.93245 24.3669 5.58614 24.1833 6.24 24C6.42191 23.9464 6.60383 23.8928 6.79125 23.8376C7.73075 23.5749 8.41936 23.4661 9.36 23.76Z" fill="#F0EFEF"/>
<path id="Vector_6" d="M30.96 39.6C32.0369 39.6 32.5666 39.9318 33.33 40.635C34.984 42.1529 36.7648 42.6773 38.9034 43.239C40.4559 43.6616 40.4559 43.6616 41.04 44.4C41.16 45.24 41.16 45.24 41.04 46.08C40.56 46.5 40.56 46.5 39.84 46.8C39.6265 46.8956 39.6265 46.8956 39.4088 46.9931C36.6781 48.14 32.4508 48.3062 29.6653 47.3156C28.7898 46.9023 28.3907 46.666 27.84 45.84C27.5877 43.9296 28.0253 42.1436 28.56 40.32C28.7897 40.2722 28.7897 40.2722 29.0241 40.2234C29.2224 40.181 29.4207 40.1386 29.625 40.095C29.9215 40.0323 29.9215 40.0323 30.2241 39.9684C30.7144 39.8862 30.7144 39.8862 30.96 39.6Z" fill="#4A4949"/>
<path id="Vector_7" d="M19.4044 40.1896C19.6596 40.2542 19.6596 40.2542 19.92 40.32C20.1922 40.3744 20.4645 40.4289 20.745 40.485C21.36 40.8 21.36 40.8 21.675 41.475C21.7567 41.8536 21.7567 41.8536 21.84 42.24C21.8808 42.424 21.9217 42.6081 21.9637 42.7978C22.1775 43.9783 22.2482 45.1292 22.08 46.32C21.111 47.5623 19.9894 47.7627 18.48 48C17.6137 48.0687 16.7537 48.0801 15.885 48.075C15.6531 48.074 15.4212 48.073 15.1823 48.0719C13.0241 48.0378 10.4917 47.9317 8.88 46.32C8.7 45.48 8.7 45.48 8.88 44.64C9.71818 43.8018 10.5286 43.6106 11.67 43.35C13.6444 42.8962 15.5098 42.1368 16.965 40.695C17.7657 39.947 18.357 39.9805 19.4044 40.1896Z" fill="#494848"/>
<path id="Vector_8" d="M44.88 11.76C45.9418 12.2554 46.5536 12.8102 46.9922 13.9313C47.3935 15.3593 47.1993 16.1939 46.56 17.52C46.4808 17.5992 46.4016 17.6784 46.32 17.76C46.3027 18.1647 46.2999 18.57 46.305 18.975C46.3072 19.1956 46.3093 19.4162 46.3116 19.6434C46.3143 19.8139 46.3171 19.9844 46.32 20.16C46.6764 20.2788 46.6764 20.2788 47.04 20.4C47.28 21.12 47.28 21.12 47.04 21.84C47.1918 22.164 47.3521 22.4841 47.52 22.8C47.52 23.0376 47.52 23.2752 47.52 23.52C47.5992 23.7576 47.6784 23.9952 47.76 24.24C47.76 24.4776 47.76 24.7152 47.76 24.96C47.8392 25.1184 47.9184 25.2768 48 25.44C48.0704 26.3085 48.0667 27.179 48.075 28.05C48.082 28.2916 48.0889 28.5333 48.0961 28.7822C48.1114 30.5607 48.1114 30.5607 47.5528 31.3594C46.9046 31.7646 46.5907 31.8302 45.84 31.68C45.0144 31.0037 44.7476 30.5153 44.5931 29.4675C44.5551 29.2237 44.517 28.9799 44.4778 28.7288C44.4422 28.4751 44.4066 28.2214 44.37 27.96C44.3326 27.7137 44.2951 27.4675 44.2566 27.2138C44.1808 26.7153 44.1066 26.2165 44.0341 25.7175C43.8832 24.7158 43.7076 23.7189 43.5292 22.7217C43.4418 22.093 43.398 21.5135 43.44 20.88C43.68 20.64 43.92 20.4 44.16 20.16C44.2202 19.5298 44.2202 19.5298 44.16 18.96C43.8432 18.96 43.5264 18.96 43.2 18.96C43.0416 18.96 42.8832 18.96 42.72 18.96C42.72 18.8016 42.72 18.6432 42.72 18.48C42.5121 18.4577 42.5121 18.4577 42.3 18.435C41.5359 18.1591 41.2546 17.6984 40.8 17.04C40.3737 15.7612 40.3514 14.4167 40.875 13.17C41.0086 13.0215 41.1423 12.873 41.28 12.72C41.5176 12.72 41.7552 12.72 42 12.72C42.0792 13.5912 42.1584 14.4624 42.24 15.36C42.9244 15.5083 43.4701 15.6224 44.16 15.6C44.8422 15.2134 44.8422 15.2134 45.12 14.4C45.1238 13.5049 45.0222 12.6428 44.88 11.76Z" fill="#515050"/>
<path id="Vector_9" d="M34.56 14.16C34.7118 14.5935 34.7118 14.5935 34.8666 15.0357C34.9994 15.4138 35.1322 15.7919 35.265 16.17C35.3317 16.3606 35.3983 16.5512 35.467 16.7475C35.5312 16.9301 35.5954 17.1126 35.6616 17.3007C35.7206 17.4691 35.7797 17.6375 35.8406 17.811C35.997 18.2556 35.997 18.2556 36.24 18.72C35.5425 18.5694 34.966 18.3462 34.335 18.015C32.547 17.0802 30.9336 16.6464 28.9275 17.205C27.9584 17.6033 27.2565 18.0672 26.505 18.795C25.8177 19.4314 25.8177 19.4314 25.2 19.47C24.705 19.395 24.705 19.395 24.2156 19.2807C23.712 19.1551 23.712 19.1551 23.055 19.425C21.935 19.4479 21.4892 18.7347 20.7084 17.9878C19.9184 17.3139 19.2587 17.1276 18.24 17.04C18.0522 17.0209 17.8644 17.0017 17.6709 16.9819C16.057 16.8963 14.9009 17.3322 13.44 18C13.44 17.1288 13.44 16.2576 13.44 15.36C13.7806 15.3726 13.7806 15.3726 14.1281 15.3853C16.1252 15.4347 18.0014 15.3063 19.963 14.9172C22.8804 14.3543 25.841 14.3701 28.8 14.4C29.45 14.4065 30.1 14.4112 30.75 14.415C31.0328 14.4178 31.3155 14.4206 31.6069 14.4235C32.607 14.3939 33.5617 14.16 34.56 14.16Z" fill="#B89042"/>
<path id="Vector_10" d="M19.7297 18.1922C20.8228 18.9233 21.3049 19.8657 21.6 21.12C21.7477 22.6461 21.5115 23.6868 20.64 24.96C19.6111 25.9625 18.7216 26.3618 17.295 26.475C16.0059 26.4363 15.188 25.946 14.22 25.11C13.1905 23.909 13.1059 22.8103 13.1409 21.2766C13.2572 20.0233 13.7162 19.395 14.61 18.54C16.328 17.3031 17.8637 17.1636 19.7297 18.1922Z" fill="#F7F8F7"/>
<path id="Vector_11" d="M32.415 17.895C33.6469 18.566 34.5944 19.543 35.04 20.88C35.226 22.4262 35.0237 23.6971 34.08 24.96C33.017 25.9539 32.0765 26.3528 30.63 26.46C29.2296 26.3634 28.4396 25.87 27.525 24.84C26.5519 23.6754 26.5583 22.581 26.5725 21.1078C26.6925 19.8491 27.2938 19.2356 28.2 18.42C29.6026 17.4382 30.7825 17.1677 32.415 17.895Z" fill="#F8F9F8"/>
<path id="Vector_12" d="M10.08 22.32C10.2909 22.8806 10.2909 22.8806 10.455 23.61C10.515 23.8739 10.575 24.1378 10.6369 24.4097C10.8189 25.2916 10.9832 26.1747 11.1375 27.0619C11.3239 28.0797 11.5328 29.0922 11.745 30.105C11.8068 30.4007 11.8068 30.4007 11.8698 30.7023C12.1561 32.0531 12.483 33.3877 12.8597 34.7166C13.0323 35.6861 13.0323 35.6861 12.72 36.24C12.1179 36.4902 11.577 36.6654 10.95 36.825C10.7705 36.8739 10.591 36.9229 10.4061 36.9733C10.0206 37.0777 9.6347 37.1801 9.24831 37.2809C8.62693 37.4434 8.00766 37.6126 7.38843 37.7831C6.98069 37.894 6.57288 38.0047 6.16499 38.115C5.97167 38.1676 5.77835 38.2201 5.57917 38.2743C5.39722 38.3223 5.21527 38.3703 5.0278 38.4197C4.86776 38.4623 4.70772 38.505 4.54282 38.5489C4.07999 38.64 4.07999 38.64 3.11999 38.64C2.67421 37.1726 2.29735 35.8596 2.39999 34.32C2.75639 34.2012 2.75639 34.2012 3.11999 34.08C3.41597 35.1714 3.61311 36.0675 3.59999 37.2C3.74387 37.1589 3.88775 37.1178 4.03599 37.0754C4.92425 36.8216 5.81251 36.5679 6.70077 36.3141C7.03374 36.2189 7.03374 36.2189 7.37343 36.1219C7.70065 36.0292 7.70065 36.0292 8.03448 35.9346C8.54312 35.7879 9.04898 35.6316 9.55405 35.4731C10.3217 35.2796 10.972 35.2416 11.76 35.28C11.6901 34.9914 11.6202 34.7027 11.5481 34.4053C10.6958 30.8663 9.9013 27.3153 9.11999 23.76C7.98099 23.9 6.93101 24.1277 5.83499 24.465C4.30161 24.917 2.78205 25.2198 1.19999 25.44C1.27919 25.737 1.35839 26.034 1.43999 26.34C1.63173 27.059 1.67999 27.5523 1.67999 28.32C1.44239 28.32 1.20479 28.32 0.95999 28.32C0.500865 27.5361 0.394371 26.8813 0.32999 25.98C0.312046 25.7436 0.294103 25.5073 0.275615 25.2637C0.263859 25.0843 0.252103 24.9049 0.23999 24.72C1.71319 24.019 3.21688 23.6434 4.79999 23.265C5.30505 23.1424 5.81005 23.0196 6.31499 22.8966C6.55135 22.8396 6.78772 22.7826 7.03124 22.7239C7.57945 22.5854 8.11567 22.4299 8.65499 22.2609C9.35999 22.08 9.35999 22.08 10.08 22.32Z" fill="#535251"/>
<path id="Vector_13" d="M43.44 18.48C43.7568 18.6384 44.0736 18.7968 44.4 18.96C44.445 19.515 44.445 19.515 44.4 20.16C44.2793 20.2642 44.1587 20.3685 44.0344 20.4759C43.6162 20.8689 43.6162 20.8689 43.6453 21.5044C43.6716 21.7438 43.6979 21.9833 43.725 22.23C43.7663 22.6138 43.7663 22.6138 43.8084 23.0053C43.9305 23.8313 44.1008 24.6281 44.3269 25.4315C44.4181 26.0413 44.3068 26.5255 44.16 27.12C41.5969 27.971 41.5969 27.971 40.32 27.84C40.2408 27.7608 40.1616 27.6816 40.08 27.6C39.7632 29.0256 39.4464 30.4512 39.12 31.92C39.0408 31.92 38.9616 31.92 38.88 31.92C38.9196 31.6428 38.9592 31.3656 39 31.08C39.1193 29.9908 39.1549 28.9049 39.165 27.81C39.1681 27.6496 39.1712 27.4892 39.1744 27.3239C39.1779 25.5469 38.6943 24.2172 37.785 22.71C37.6362 22.4606 37.4874 22.2113 37.334 21.9544C37.0126 21.3949 37.0126 21.3949 36.72 21.12C36.6861 20.479 36.7098 19.8421 36.72 19.2C36.7812 19.3274 36.8425 19.4549 36.9056 19.5862C37.2684 20.2933 37.6677 20.9746 38.07 21.66C38.2216 21.9186 38.3732 22.1773 38.5294 22.4437C38.6451 22.6405 38.7608 22.8373 38.88 23.04C38.9054 22.8943 38.9308 22.7487 38.9569 22.5987C39.226 21.7426 39.9686 21.3324 40.665 20.82C40.8087 20.7098 40.9524 20.5997 41.1004 20.4862C42.1718 19.68 42.1718 19.68 42.72 19.68C42.72 19.5216 42.72 19.3632 42.72 19.2C43.08 18.81 43.08 18.81 43.44 18.48Z" fill="#ECAF56"/>
<path id="Vector_14" d="M44.88 11.76C45.9418 12.2554 46.5536 12.8102 46.9922 13.9313C47.3935 15.3593 47.1993 16.1939 46.56 17.52C46.4808 17.5992 46.4016 17.6784 46.32 17.76C46.2643 18.1235 46.2211 18.489 46.185 18.855C46.1649 19.0533 46.1448 19.2516 46.1241 19.4559C46.1022 19.6857 46.1022 19.6857 46.08 19.92C45.3672 20.0388 45.3672 20.0388 44.64 20.16C44.5608 20.6352 44.4816 21.1104 44.4 21.6C44.0832 21.3624 43.7664 21.1248 43.44 20.88C43.6182 20.7389 43.6182 20.7389 43.8 20.595C44.2694 20.0278 44.2181 19.6766 44.16 18.96C43.8432 18.96 43.5264 18.96 43.2 18.96C43.0416 18.96 42.8832 18.96 42.72 18.96C42.72 18.8016 42.72 18.6432 42.72 18.48C42.5121 18.4577 42.5121 18.4577 42.3 18.435C41.5359 18.1591 41.2546 17.6984 40.8 17.04C40.3737 15.7612 40.3514 14.4167 40.875 13.17C41.0086 13.0215 41.1423 12.873 41.28 12.72C41.5176 12.72 41.7552 12.72 42 12.72C42.0792 13.5912 42.1584 14.4624 42.24 15.36C42.9244 15.5083 43.4701 15.6224 44.16 15.6C44.8422 15.2134 44.8422 15.2134 45.12 14.4C45.1238 13.5049 45.0222 12.6428 44.88 11.76Z" fill="#525151"/>
<path id="Vector_15" d="M2.88002 30.24C3.03842 30.24 3.19682 30.24 3.36002 30.24C3.75602 31.5864 4.15202 32.9328 4.56002 34.32C4.87682 34.0824 5.19362 33.8448 5.52002 33.6C5.52002 33.8376 5.52002 34.0752 5.52002 34.32C6.47042 34.0824 7.42082 33.8448 8.40002 33.6C8.16242 33.2832 7.92482 32.9664 7.68002 32.64C7.44242 32.64 7.20482 32.64 6.96002 32.64C6.88082 32.4024 6.80162 32.1648 6.72002 31.92C6.95762 31.8408 7.19522 31.7616 7.44002 31.68C7.76929 31.3695 8.09086 31.0505 8.40002 30.72C8.63762 31.0764 8.63762 31.0764 8.88002 31.44C9.4951 31.6151 9.4951 31.6151 10.08 31.68C10.1988 32.3928 10.1988 32.3928 10.32 33.12C10.4784 33.12 10.6368 33.12 10.8 33.12C10.8792 32.9616 10.9584 32.8032 11.04 32.64C11.76 34.2 11.76 34.2 11.76 35.28C11.6199 35.3126 11.4798 35.3452 11.3355 35.3787C10.6868 35.53 10.0384 35.6825 9.39002 35.835C9.05961 35.9118 9.05961 35.9118 8.72252 35.9901C7.4045 36.3011 6.11123 36.6517 4.82147 37.0652C4.32002 37.2 4.32002 37.2 3.60002 37.2C3.47819 36.5553 3.35852 35.9103 3.24002 35.265C3.20568 35.0845 3.17134 34.9039 3.13596 34.718C2.93368 33.6054 2.84399 32.5706 2.88002 31.44C2.72162 31.44 2.56322 31.44 2.40002 31.44C2.55842 31.044 2.71682 30.648 2.88002 30.24Z" fill="#FAFAF9"/>
<path id="Vector_16" d="M46.08 18.96C46.1592 18.96 46.2384 18.96 46.32 18.96C46.32 19.356 46.32 19.752 46.32 20.16C46.5576 20.2392 46.7952 20.3184 47.04 20.4C47.28 21.12 47.28 21.12 47.04 21.84C47.1919 22.1639 47.3522 22.484 47.52 22.8C47.52 23.0376 47.52 23.2752 47.52 23.52C47.5992 23.7576 47.6784 23.9952 47.76 24.24C47.76 24.4776 47.76 24.7152 47.76 24.96C47.8392 25.1184 47.9184 25.2768 48 25.44C48.0171 26.0097 48.0202 26.58 48.015 27.15C48.0128 27.4575 48.0107 27.765 48.0084 28.0818C48.0057 28.3188 48.0029 28.5558 48 28.8C47.581 28.028 47.4709 27.5231 47.52 26.64C47.2131 26.6895 46.9062 26.739 46.59 26.79C46.0669 26.8743 46.0669 26.8743 45.6 26.88C44.85 26.1299 44.871 25.2177 44.715 24.195C44.6808 23.9937 44.6466 23.7925 44.6114 23.5851C44.4207 22.37 44.3967 21.3669 44.64 20.16C45.1152 20.0808 45.5904 20.0016 46.08 19.92C46.08 19.6032 46.08 19.2864 46.08 18.96Z" fill="#EFDEC2"/>
<path id="Vector_17" d="M0.72 27.84C0.7992 27.9984 0.8784 28.1568 0.96 28.32C1.1481 28.2705 1.3362 28.221 1.53 28.17C1.84185 28.1254 1.84185 28.1254 2.16 28.08C2.3184 28.2384 2.4768 28.3968 2.64 28.56C2.56417 28.9608 2.48357 29.3607 2.4 29.76C2.47461 30.161 2.55379 30.5613 2.64 30.96C2.5608 31.1184 2.4816 31.2768 2.4 31.44C2.5584 31.44 2.7168 31.44 2.88 31.44C2.9592 32.3112 3.0384 33.1824 3.12 34.08C1.77 34.62 1.77 34.62 0.72 34.32C0.587166 33.8218 0.48 33.3975 0.48 32.88C0.447608 32.3748 0.412163 31.8698 0.375 31.365C0.355509 31.0936 0.336019 30.8223 0.315937 30.5428C0.250262 29.8658 0.148043 29.223 0 28.56C0.2376 28.4808 0.4752 28.4016 0.72 28.32C0.72 28.1616 0.72 28.0032 0.72 27.84Z" fill="#EDB35C"/>
<path id="Vector_18" d="M30.48 20.16C31.3105 20.6294 31.6086 20.9334 31.95 21.825C31.92 22.56 31.92 22.56 31.35 23.235C31.1421 23.4082 30.9342 23.5815 30.72 23.76C30.6408 23.8392 30.5616 23.9184 30.48 24C29.4395 24.1201 28.9545 24.1062 28.08 23.505C27.6 22.8 27.6 22.8 27.585 21.945C28.0833 20.3331 28.8053 19.9249 30.48 20.16Z" fill="#109C4E"/>
<path id="Vector_19" d="M19.92 20.64C20.67 21.15 20.67 21.15 21.12 21.84C21.12 22.6132 21.0563 23.0588 20.5706 23.6681C19.8188 24.2757 18.9412 24.3207 18 24.24C17.265 23.745 17.265 23.745 16.8 23.04C16.6405 22.1715 16.6883 21.7845 17.145 21.03C18.0569 20.4517 18.8704 20.4256 19.92 20.64Z" fill="#0F9C4B"/>
<path id="Vector_20" d="M16.35 7.24497C16.8 7.43997 16.8 7.43997 17.28 7.91997C17.4504 9.13298 17.5177 10.3823 16.815 11.43C16.1166 12.2342 16.1166 12.2342 15.51 12.33C14.88 12.24 14.88 12.24 14.43 11.775C14.0065 10.6222 14.1386 9.48583 14.6241 8.36059C15.0417 7.6415 15.4868 7.16881 16.35 7.24497Z" fill="#E3E4E8"/>
<path id="Vector_21" d="M2.88001 34.08C3.50144 34.7014 3.44977 35.0464 3.51001 35.91C3.52796 36.1506 3.5459 36.3913 3.56439 36.6393C3.58202 36.9168 3.58202 36.9168 3.60001 37.2C3.90073 37.1105 4.20144 37.0211 4.51126 36.929C4.90748 36.8142 5.30373 36.6995 5.70001 36.585C5.89801 36.5257 6.09601 36.4665 6.30001 36.4054C6.49183 36.3505 6.68364 36.2956 6.88126 36.239C7.1452 36.1617 7.1452 36.1617 7.41447 36.0829C7.9773 35.9906 8.342 36.065 8.88001 36.24C8.80081 36.636 8.72161 37.032 8.64001 37.44C7.90053 37.6419 7.16035 37.8412 6.42001 38.04C6.21057 38.0972 6.00112 38.1544 5.78533 38.2134C5.48137 38.2946 5.48137 38.2946 5.17126 38.3775C4.98525 38.4277 4.79924 38.478 4.60759 38.5298C4.08001 38.64 4.08001 38.64 3.12001 38.64C2.67423 37.1726 2.29738 35.8595 2.40001 34.32C2.55841 34.2408 2.71681 34.1616 2.88001 34.08Z" fill="#626161"/>
<path id="Vector_22" d="M5.75999 23.52C5.52239 23.6388 5.52239 23.6388 5.27999 23.76C5.27999 23.9976 5.27999 24.2352 5.27999 24.48C4.37945 24.8776 3.53674 25.0805 2.56499 25.23C2.30852 25.2702 2.05205 25.3104 1.7878 25.3518C1.49684 25.3955 1.49684 25.3955 1.19999 25.44C1.27919 25.737 1.35839 26.034 1.43999 26.34C1.63173 27.059 1.67999 27.5522 1.67999 28.32C1.44239 28.32 1.20479 28.32 0.95999 28.32C0.500865 27.5361 0.394371 26.8813 0.32999 25.98C0.312046 25.7436 0.294103 25.5072 0.275615 25.2637C0.263859 25.0843 0.252103 24.9048 0.23999 24.72C4.03265 22.9098 4.03265 22.9098 5.75999 23.52Z" fill="#5A5959"/>
<path id="Vector_23" d="M2.15997 30.96C2.23917 31.1184 2.31837 31.2768 2.39997 31.44C2.55837 31.44 2.71677 31.44 2.87997 31.44C2.95917 32.3112 3.03837 33.1824 3.11997 34.08C1.76997 34.62 1.76997 34.62 0.719972 34.32C0.495756 33.5975 0.469292 33.392 0.719972 32.64C0.739772 32.437 0.759572 32.2341 0.779972 32.025C0.839372 31.8319 0.898772 31.6389 0.959972 31.44C1.57497 31.125 1.57497 31.125 2.15997 30.96Z" fill="#EBB05B"/>
<path id="Vector_24" d="M36.72 19.2C36.7769 19.3222 36.8338 19.4444 36.8925 19.5703C37.1463 20.0569 37.4137 20.5162 37.7025 20.9821C37.7962 21.1339 37.89 21.2856 37.9865 21.442C38.1809 21.7553 38.3765 22.0678 38.5734 22.3795C39.9287 24.5869 40.2885 26.8464 39.765 29.355C39.7179 29.6076 39.7179 29.6076 39.6698 29.8654C39.5083 30.6838 39.3483 31.2175 38.88 31.92C38.9196 31.6428 38.9592 31.3656 39 31.08C39.1193 29.9908 39.1549 28.9048 39.165 27.81C39.1681 27.6495 39.1712 27.4891 39.1744 27.3239C39.1779 25.5469 38.6943 24.2172 37.785 22.71C37.6362 22.4606 37.4874 22.2112 37.334 21.9543C37.0126 21.3948 37.0126 21.3948 36.72 21.12C36.6861 20.479 36.7098 19.8421 36.72 19.2Z" fill="#E9BE7E"/>
<path id="Vector_25" d="M47.22 24.7651C47.76 24.9601 47.76 24.9601 48 25.4401C48.0171 26.0098 48.0202 26.5801 48.015 27.1501C48.0128 27.4576 48.0107 27.7651 48.0084 28.0819C48.0056 28.3189 48.0029 28.5559 48 28.8001C47.581 28.0281 47.4709 27.5232 47.52 26.6401C46.8864 26.7193 46.2528 26.7985 45.6 26.8801C45.5208 26.4049 45.4416 25.9297 45.36 25.4401C46.3847 24.7081 46.3847 24.7081 47.22 24.7651Z" fill="#EEB055"/>
<path id="Vector_26" d="M13.44 15.36C14.4696 15.4392 15.4992 15.5184 16.56 15.6C16.56 15.996 16.56 16.392 16.56 16.8C16.2825 16.8998 16.2825 16.8998 15.9994 17.0015C15.7587 17.0885 15.518 17.1754 15.27 17.265C15.0305 17.3513 14.7911 17.4376 14.5444 17.5265C13.9356 17.7416 13.9356 17.7416 13.44 18C13.44 17.1288 13.44 16.2576 13.44 15.36Z" fill="#C59D55"/>
<path id="Vector_27" d="M16.56 8.16003C16.8567 8.75342 16.7962 9.0656 16.725 9.72003C16.7062 9.91061 16.6873 10.1012 16.6678 10.2975C16.56 10.8 16.56 10.8 16.08 11.28C15.45 11.19 15.45 11.19 14.88 11.04C14.7928 9.29458 14.7928 9.29458 15.18 8.52003C15.6 8.16003 15.6 8.16003 16.56 8.16003Z" fill="#444D65"/>
<path id="Vector_28" d="M46.08 18.96C46.1592 18.96 46.2384 18.96 46.32 18.96C46.32 19.356 46.32 19.752 46.32 20.16C46.5576 20.2392 46.7952 20.3184 47.04 20.4C47.1192 20.6376 47.1984 20.8752 47.28 21.12C47.04 21.6 47.04 21.6 46.65 21.75C45.8962 21.869 45.1618 21.8546 44.4 21.84C44.4792 21.2856 44.5584 20.7312 44.64 20.16C45.1152 20.0808 45.5904 20.0016 46.08 19.92C46.08 19.6032 46.08 19.2864 46.08 18.96Z" fill="#E4B46C"/>
<path id="Vector_29" d="M10.8 26.16C11.2631 26.3175 11.2631 26.3175 11.76 26.64C11.9419 27.2475 11.9419 27.2475 12.03 27.96C12.1253 28.9768 12.1253 28.9768 12.72 29.76C12.6619 30.3844 12.6619 30.3844 12.51 31.11C12.4611 31.3507 12.4122 31.5914 12.3619 31.8394C12.3216 32.0244 12.2814 32.2094 12.24 32.4C12.1608 32.4 12.0816 32.4 12 32.4C11.8443 31.6752 11.6894 30.9502 11.535 30.225C11.4693 29.9199 11.4693 29.9199 11.4023 29.6086C11.1588 28.4618 10.9499 27.3229 10.8 26.16Z" fill="#E6AA53"/>
<path id="Vector_30" d="M0.72 27.84C0.7992 27.9984 0.8784 28.1568 0.96 28.32C1.1481 28.2705 1.3362 28.221 1.53 28.17C1.84185 28.1254 1.84185 28.1254 2.16 28.08C2.3184 28.2384 2.4768 28.3968 2.64 28.56C2.55196 29.2643 2.43255 29.4874 1.92 30C1.6824 30 1.4448 30 1.2 30C1.2 29.8416 1.2 29.6832 1.2 29.52C0.804 29.52 0.408 29.52 0 29.52C0.0792 29.124 0.1584 28.728 0.24 28.32C0.3984 28.32 0.5568 28.32 0.72 28.32C0.72 28.1616 0.72 28.0032 0.72 27.84Z" fill="#E5AA51"/>
<path id="Vector_31" d="M8.64002 27.36C8.79842 27.36 8.95682 27.36 9.12002 27.36C9.8655 29.2483 10.3833 31.1341 10.8 33.12C10.6416 33.12 10.4832 33.12 10.32 33.12C10.2408 32.6448 10.1616 32.1696 10.08 31.68C9.68402 31.68 9.28802 31.68 8.88002 31.68C8.72162 31.284 8.56322 30.888 8.40002 30.48C8.71682 30.4008 9.03362 30.3216 9.36002 30.24C9.2855 29.8949 9.21039 29.5499 9.13502 29.205C9.07238 28.9168 9.07238 28.9168 9.00846 28.6228C8.8803 28.0451 8.8803 28.0451 8.64002 27.36Z" fill="#C5BFBE"/>
<path id="Vector_32" d="M2.15997 30.96C2.23917 31.1184 2.31837 31.2768 2.39997 31.44C2.55837 31.44 2.71677 31.44 2.87997 31.44C2.87997 31.9152 2.87997 32.3904 2.87997 32.88C2.24637 32.88 1.61277 32.88 0.959971 32.88C0.880771 32.484 0.801571 32.088 0.719971 31.68C1.19517 31.4424 1.67037 31.2048 2.15997 30.96Z" fill="#D99F46"/>
<path id="Vector_33" d="M16.365 7.21497C16.8 7.43997 16.8 7.43997 17.28 7.91997C17.3269 8.54434 17.3269 8.54434 17.31 9.26996C17.3057 9.51066 17.3014 9.75135 17.2969 9.99934C17.2885 10.2768 17.2885 10.2768 17.28 10.56C17.1216 10.4808 16.9632 10.4016 16.8 10.32C16.7006 9.82403 16.7006 9.82403 16.65 9.22496C16.6321 9.02666 16.6141 8.82835 16.5956 8.62403C16.5839 8.47089 16.5721 8.31775 16.56 8.15997C15.8604 8.41773 15.4133 8.58671 14.88 9.11997C14.8008 8.88237 14.7216 8.64477 14.64 8.39997C15.6973 7.19589 15.6973 7.19589 16.365 7.21497Z" fill="#F2F2F4"/>
<path id="Vector_34" d="M47.52 23.52C47.5992 23.7576 47.6784 23.9952 47.76 24.24C47.6808 24.3984 47.6016 24.5568 47.52 24.72C47.0241 24.8194 47.0241 24.8194 46.425 24.87C46.2267 24.888 46.0284 24.9059 45.8241 24.9244C45.5943 24.9421 45.5943 24.9421 45.36 24.96C45.2808 24.6432 45.2016 24.3264 45.12 24C45.9946 23.417 46.491 23.4812 47.52 23.52Z" fill="#EBA948"/>
<path id="Vector_35" d="M35.52 23.28C35.3616 23.8344 35.2032 24.3888 35.04 24.96C34.8816 24.96 34.7232 24.96 34.56 24.96C34.5105 25.1036 34.461 25.2471 34.41 25.395C33.9578 26.1145 33.4053 26.3073 32.64 26.64C32.82 26.07 32.82 26.07 33.12 25.44C33.2784 25.3658 33.4368 25.2915 33.6 25.215C34.164 24.9838 34.164 24.9838 34.35 24.225C34.454 23.8761 34.454 23.8761 34.56 23.52C35.04 23.28 35.04 23.28 35.52 23.28Z" fill="#54514D"/>
<path id="Vector_36" d="M47.28 22.08C47.28 22.3968 47.28 22.7136 47.28 23.04C46.4464 23.3179 45.7534 23.2965 44.88 23.28C44.9592 22.884 45.0384 22.488 45.12 22.08C45.9308 21.8773 46.4819 21.814 47.28 22.08Z" fill="#EEAC4C"/>
<path id="Vector_37" d="M34.32 14.16C34.9746 14.8146 35.1434 15.5776 35.415 16.44C35.7695 17.6028 35.7695 17.6028 36.24 18.72C35.7928 18.6694 35.7928 18.6694 35.28 18.48C34.5423 17.2576 34.1705 15.8169 34.08 14.4C34.1592 14.3208 34.2384 14.2416 34.32 14.16Z" fill="#EAB05C"/>
<path id="Vector_38" d="M15.855 15.585C16.204 15.5924 16.204 15.5924 16.56 15.6C16.56 15.996 16.56 16.392 16.56 16.8C15.9264 16.9584 15.2928 17.1168 14.64 17.28C14.8895 15.6047 14.8895 15.6047 15.855 15.585Z" fill="#D3A64C"/>
<path id="Vector_39" d="M18.96 20.88C19.545 21.045 19.545 21.045 20.16 21.36C20.355 21.99 20.355 21.99 20.4 22.56C19.965 22.725 19.965 22.725 19.44 22.8C19.005 22.53 19.005 22.53 18.72 22.08C18.795 21.435 18.795 21.435 18.96 20.88Z" fill="#EDF5F0"/>
<path id="Vector_40" d="M29.76 20.64C30.4558 20.7522 30.688 20.848 31.2 21.36C31.11 21.99 31.11 21.99 30.96 22.56C30.375 22.395 30.375 22.395 29.76 22.08C29.55 21.465 29.55 21.465 29.52 20.88C29.5992 20.8008 29.6784 20.7216 29.76 20.64Z" fill="#F0F7F2"/>
<path id="Vector_41" d="M34.08 25.6801C34.3176 25.8385 34.5552 25.9969 34.8 26.1601C34.7208 26.4769 34.6416 26.7937 34.56 27.1201C34.164 27.1993 33.768 27.2785 33.36 27.3601C33.2016 27.0433 33.0432 26.7265 32.88 26.4001C33.276 26.1625 33.672 25.9249 34.08 25.6801Z" fill="#A8833F"/>
<path id="Vector_42" d="M28.8 20.16C29.7552 20.0851 30.3256 20.0727 31.17 20.55C31.7751 21.2263 31.8591 21.6668 31.92 22.56C31.6824 22.4808 31.4448 22.4016 31.2 22.32C31.1455 22.1319 31.0911 21.9438 31.035 21.75C30.6615 21.0031 30.4877 20.9633 29.73 20.685C29.4214 20.5856 29.1117 20.4891 28.8 20.4C28.8 20.3208 28.8 20.2416 28.8 20.16Z" fill="#42AC67"/>
<path id="Vector_43" d="M3.84003 31.6801C4.211 32.2365 4.51111 32.7616 4.80003 33.3601C5.11683 33.3601 5.43363 33.3601 5.76003 33.3601C5.83923 33.6769 5.91843 33.9937 6.00003 34.3201C5.84163 34.3201 5.68323 34.3201 5.52003 34.3201C5.44083 34.1617 5.36163 34.0033 5.28003 33.8401C5.04243 34.1569 4.80483 34.4737 4.56003 34.8001C4.43821 34.4607 4.31865 34.1205 4.20003 33.7801C4.09979 33.496 4.09979 33.496 3.99753 33.2063C3.84003 32.6401 3.84003 32.6401 3.84003 31.6801Z" fill="#C5BEBD"/>
<path id="Vector_44" d="M47.76 25.4399C47.8392 25.4399 47.9184 25.4399 48 25.4399C48 26.5487 48 27.6575 48 28.7999C47.5479 27.8959 47.467 27.5928 47.52 26.6399C46.8864 26.7191 46.2528 26.7983 45.6 26.8799C46.312 26.4844 46.9575 26.2937 47.76 26.1599C47.76 25.9223 47.76 25.6847 47.76 25.4399Z" fill="#F5F1EC"/>
<path id="Vector_45" d="M12 29.28C12.3564 29.5176 12.3564 29.5176 12.72 29.76C12.5616 30.6312 12.4032 31.5024 12.24 32.4C12.1608 32.4 12.0816 32.4 12 32.4C12 31.3704 12 30.3408 12 29.28Z" fill="#EFCD9B"/>
<path id="Vector_46" d="M37.68 22.3199C38.13 22.3799 38.13 22.3799 38.64 22.5599C38.955 22.9949 38.955 22.9949 39.12 23.5199C39.03 24.0599 39.03 24.0599 38.88 24.4799C38.3221 23.7952 37.9798 23.1502 37.68 22.3199Z" fill="#EBB059"/>
<path id="Vector_47" d="M19.68 20.64C20.265 20.91 20.265 20.91 20.88 21.36C21.075 22.125 21.075 22.125 21.12 22.8C21.0408 22.6416 20.9616 22.4832 20.88 22.32C20.7216 22.32 20.5632 22.32 20.4 22.32C20.3307 22.1715 20.2614 22.023 20.19 21.87C19.9351 21.328 19.9351 21.328 19.44 20.88C19.5192 20.8008 19.5984 20.7216 19.68 20.64Z" fill="#37A75E"/>
<path id="Vector_48" d="M45.84 29.76C46.236 29.76 46.632 29.76 47.04 29.76C47.04 30.0768 47.04 30.3936 47.04 30.72C46.644 30.72 46.248 30.72 45.84 30.72C45.84 30.4032 45.84 30.0864 45.84 29.76Z" fill="#E7E7E7"/>
<path id="Vector_49" d="M18.72 31.2C18.9576 31.2792 19.1952 31.3584 19.44 31.44C19.44 31.7568 19.44 32.0736 19.44 32.4C19.1232 32.4 18.8064 32.4 18.48 32.4C18.5592 32.004 18.6384 31.608 18.72 31.2Z" fill="#AD863F"/>
<path id="Vector_50" d="M30 30.24C30.2376 30.24 30.4752 30.24 30.72 30.24C30.6408 30.636 30.5616 31.032 30.48 31.44C30.2424 31.3608 30.0048 31.2816 29.76 31.2C29.8392 30.8832 29.9184 30.5664 30 30.24Z" fill="#AD863F"/>
<path id="Vector_51" d="M44.4 19.2C44.4792 19.2 44.5584 19.2 44.64 19.2C44.5608 19.992 44.4816 20.784 44.4 21.6C44.0832 21.3624 43.7664 21.1248 43.44 20.88C43.5539 20.781 43.6677 20.682 43.785 20.58C44.199 20.1162 44.2958 19.8043 44.4 19.2Z" fill="#676666"/>
</g>
<defs>
<clipPath id="clip0_1_619">
<rect width="48" height="48" fill="white"/>
</clipPath>
</defs>
</svg>
