<svg width="20" height="20" viewBox="0 0 20 20" fill="none" xmlns="http://www.w3.org/2000/svg">
<g id="svgexport-6 (6) 1" clip-path="url(#clip0_1_1188)">
<g id="Group">
<g id="Group_2">
<g id="Group_3">
<path id="Vector" d="M19.8355 3.91551C19.1011 4.23763 18.3187 4.45114 17.5029 4.55482C18.3421 4.05374 18.9826 3.26633 19.2838 2.31725C18.5013 2.78377 17.6374 3.1133 16.7167 3.29719C15.9737 2.50608 14.9148 2.01611 13.7596 2.01611C11.5183 2.01611 9.71397 3.83529 9.71397 6.06545C9.71397 6.38633 9.74112 6.69488 9.80777 6.98861C6.44217 6.82447 3.4641 5.2114 1.4635 2.75415C1.11422 3.36013 0.909351 4.05374 0.909351 4.80042C0.909351 6.20244 1.63134 7.44526 2.70755 8.16478C2.05714 8.15244 1.41907 7.96361 0.878496 7.66618C0.878496 7.67852 0.878496 7.69456 0.878496 7.71061C0.878496 9.67789 2.28176 11.3119 4.12191 11.6884C3.79239 11.7785 3.43324 11.8217 3.06052 11.8217C2.80134 11.8217 2.5397 11.8068 2.2941 11.7525C2.81862 13.3557 4.30704 14.5344 6.07685 14.5726C4.69951 15.6501 2.95068 16.2992 1.05745 16.2992C0.725459 16.2992 0.407041 16.2844 0.088623 16.2437C1.88188 17.4001 4.00714 18.0604 6.299 18.0604C13.7485 18.0604 17.8213 11.8895 17.8213 6.54061C17.8213 6.36165 17.8151 6.18887 17.8065 6.01732C18.6099 5.44713 19.285 4.73501 19.8355 3.91551Z" fill="white"/>
</g>
</g>
</g>
</g>
<defs>
<clipPath id="clip0_1_1188">
<rect width="19.7468" height="19.7468" fill="white" transform="translate(0.088623 0.164795)"/>
</clipPath>
</defs>
</svg>
