<svg width="56" height="40" viewBox="0 0 56 40" fill="none" xmlns="http://www.w3.org/2000/svg">
<g id="Payment Method/Visa">
<rect id="BASE" x="0.399148" y="1.2783" width="55.0824" height="37.5199" rx="4.39062" fill="white" stroke="#D9D9D9" stroke-width="0.798295"/>
<path id="visa-logo" fill-rule="evenodd" clip-rule="evenodd" d="M16.9642 26.8369H13.5789L11.0404 17.1522C10.9199 16.7067 10.6641 16.3128 10.2877 16.1272C9.34857 15.6607 8.31367 15.2895 7.18469 15.1022V14.7294H12.6381C13.3908 14.7294 13.9553 15.2895 14.0493 15.94L15.3665 22.9259L18.7501 14.7294H22.0413L16.9642 26.8369ZM23.923 26.8369H20.7258L23.3585 14.7294H26.5556L23.923 26.8369ZM30.6919 18.0836C30.786 17.4315 31.3505 17.0586 32.009 17.0586C33.0439 16.965 34.1713 17.1522 35.1121 17.6171L35.6766 15.0103C34.7357 14.6374 33.7008 14.4502 32.7617 14.4502C29.6586 14.4502 27.4007 16.1273 27.4007 18.4548C27.4007 20.2255 29.0001 21.1552 30.129 21.7153C31.3505 22.2738 31.8209 22.6467 31.7268 23.2052C31.7268 24.0429 30.786 24.4158 29.8468 24.4158C28.7178 24.4158 27.5888 24.1365 26.5556 23.67L25.9911 26.2785C27.1201 26.7433 28.3415 26.9306 29.4705 26.9306C32.9498 27.0226 35.1121 25.3471 35.1121 22.8323C35.1121 19.6654 30.6919 19.4798 30.6919 18.0836ZM46.3012 26.8369L43.7626 14.7294H41.0359C40.4714 14.7294 39.9069 15.1022 39.7188 15.6607L35.018 26.8369H38.3092L38.9661 25.0678H43.01L43.3863 26.8369H46.3012ZM41.5063 17.99L42.4455 22.5531H39.8128L41.5063 17.99Z" fill="#172B85"/>
</g>
</svg>
